<?xml version="1.0" encoding="UTF-8"?>
<svg id="Layer_2" data-name="Layer 2" xmlns="http://www.w3.org/2000/svg" viewBox="0 0 601.41 440.17">
  <defs>
    <style>
      .cls-1 {
        fill: #e40e7f;
      }

      .cls-2 {
        fill: #57585a;
      }

      .cls-3 {
        fill: #231f20;
      }
    </style>
  </defs>
  <g id="Header">
    <g>
      <path class="cls-3" d="m138.07,440.07c-28.33,0-56.67.27-84.99-.1-18.32-.24-34.16-6.3-44.3-22.75-4.85-7.88-7.53-16.47-6.67-25.87.31-3.37-2.18-5.85-2.1-9.37,2.24-95.25.56-190.51,1.16-285.76.1-16.1,2.19-31.82,15.57-43.09,9.19-7.74,19.08-13.88,32.16-11.32,3,.59,6-1.84,9.46-1.83,88.33.15,176.66.14,264.98.13,18.66,0,19.74,5.69,15.48,20.7-4.07,14.35-7.8,28.79-11.74,43.17-7.55,27.55-15.28,55.05-22.65,82.64-3.19,11.94-5.32,24.17-8.54,36.1-5.55,20.61-11.82,41.04-17.35,61.66-7.72,28.79-14.92,57.72-22.57,86.53-5.49,20.67-11.38,41.23-17.08,61.85-2.21,8.02-9.32,7.07-14.84,7.15-28.66.38-57.33.18-85.99.18Zm12.32-230c-41.31,0-82.62.08-123.93-.11-4.49-.02-5.46,1.23-5.45,5.55.15,54.3.09,108.61.11,162.91,0,5.81-.44,11.73.44,17.42,1.98,12.71,13.95,24.72,33.72,24.47,53.8-.69,107.61-.22,161.41-.31,1.93,0,4.63,1.47,5.5-2.36,1.32-5.87,3.31-11.59,4.87-17.41,9.26-34.59,18.94-69.08,27.4-103.87,2.35-9.66,7.96-17.87,8.97-28.21,1.79-18.31,8.16-35.81,13.59-53.36,1.21-3.89,2-4.8-2.69-4.79-41.31.11-82.62.07-123.93.06Zm12.5-90c44.81,0,89.62,0,134.42,0,2.21,0,4.39.61,5.28-2.73,4.65-17.65,9.56-35.24,14.33-52.86.79-2.93.18-4.48-3.55-4.48-87.45.1-174.9.03-262.35.13-13.37.02-25.62,8.86-28.64,20.67-2.36,9.22-.6,18.84-1.5,28.19-.87,9.01.92,11.66,11.1,11.45,43.62-.87,87.28-.37,130.92-.37Zm-4.36,19.98c-44,0-87.99.06-131.99-.1-4.44-.02-5.65,1.24-5.55,5.61.28,12.99.28,26,0,38.99-.09,4.39,1.15,5.6,5.57,5.6,83.83-.13,167.65-.12,251.48,0,3.75,0,5.21-1.26,6.11-4.71,3.4-12.97,6.75-25.97,10.78-38.75,1.59-5.05,1.48-6.75-4.41-6.73-44,.17-87.99.09-131.99.09Z"/>
      <path class="cls-3" d="m419.8,400c-56.88,0-102.04,0-147.21,0-9.23,0-13.65-5.91-11.15-14.86,7.07-25.38,14.23-50.74,21.12-76.17,4.38-16.18,7.31-32.82,12.74-48.62,8.57-24.94,12.45-51.02,20.36-76.13,7.64-24.23,12.96-49.19,19.44-73.79,5.54-21.02,9.87-42.51,17.44-62.78,4.81-12.88,5.11-26.41,9.71-39.07,1.96-5.41,5.31-8.53,11.01-8.53,58.66-.03,117.33-.12,175.99.1,25.03.1,42.28,14.16,49.09,34.69,4.58,13.83,2.67,28.29,2.69,42.48.17,88.5.22,176.99-.11,265.49-.04,10.51-1.99,21.14-4.23,31.46-1.78,8.21-25.43,23.02-35.09,23.88-51.13,4.54-102.37.24-141.81,1.86Zm-4.24-19.93c33.82,0,67.64,0,101.46,0,8.83,0,17.79-.93,26.46.22,20.06,2.66,37.56-12.13,37.56-32.5,0-22.83.01-45.65,0-68.48-.01-34.32-.4-68.65.25-102.96.13-6.57-1.98-6.3-6.6-6.3-76.47.07-152.95.04-229.42-.06-3.73,0-6.04.5-7.11,4.76-5.14,20.39-9.99,40.88-16.12,60.98-5.98,19.62-8.76,40-17.31,59.19-4.05,9.09-4.7,20.96-7.18,31.57-3.45,14.72-7.35,29.32-11.39,43.86-2.76,9.93-3.51,9.72,6.41,9.72,40.99,0,81.97,0,122.96,0Zm56.83-300v-.03c34.63,0,69.27-.07,103.9.1,4.03.02,5.02-1.16,4.89-5-.28-8.15.27-16.33-.16-24.47-.89-16.84-11.71-29.33-29.21-29.67-21.59-.42-43.18-.01-64.78-.64-34.44-1.01-68.93-.26-103.4-.28-2.56,0-3.97.47-4.72,3.63-4.1,17.25-8.12,34.56-13.3,51.5-1.75,5.73.29,4.9,3.88,4.89,34.3-.05,68.6-.03,102.9-.03Zm-8.88,69.98v-.12c37.5,0,74.99-.05,112.49.08,3.92.01,5.15-1.05,5.08-5.04-.23-13.33-.19-26.66-.02-39.99.05-3.56-.78-4.93-4.67-4.92-70.99.08-141.98.04-212.98-.08-3.43,0-5.12,1.03-5.97,4.36-3.41,13.3-6.81,26.62-10.65,39.8-1.46,5.02-.01,6,4.73,5.98,37.33-.13,74.66-.07,111.99-.07Z"/>
      <g>
        <path class="cls-1" d="m54.67,419.32c-19.54,0-30.34-12.25-32.12-23.63-.65-4.17-.57-8.58-.48-12.84.03-1.48.06-2.96.06-4.43,0-15.57,0-31.13,0-46.7,0-38.09,0-77.48-.11-116.22,0-2.06.23-3.18.79-3.74.55-.55,1.65-.8,3.55-.8h.1c24.66.11,48.88.13,69.31.13h54.62s56.69,0,56.69,0c18.49,0,42.84,0,67.25-.08,2.09,0,2.53.2,2.63.29.06.23-.28,1.3-.56,2.15-.1.32-.22.68-.34,1.05-.89,2.87-1.8,5.73-2.71,8.6-4.63,14.52-9.41,29.54-10.92,44.96-.58,5.93-2.76,11.27-4.87,16.45-1.52,3.72-3.08,7.56-4.07,11.63-6.28,25.81-13.35,51.9-20.18,77.13-2.41,8.9-4.82,17.81-7.21,26.72-.61,2.28-1.3,4.58-1.96,6.81-1.03,3.46-2.1,7.04-2.91,10.63-.39,1.71-1.06,1.85-1.78,1.85-.39,0-.82-.06-1.28-.13-.48-.07-.97-.14-1.46-.14-4.75,0-9.49.01-14.23.01-12.63,0-25.26-.02-37.89-.04-12.63-.02-25.26-.04-37.89-.04-28.69,0-50.72.12-71.42.38h-.6Zm41.11-60.28c-8.42,0-15.22.03-21.42.1h-.57c-4.07.04-8.69.08-11.6,4.63-2.73,4.27-3,8.34-.79,11.76,2.69,4.16,7.08,6.45,12.38,6.45h.2c8.89-.1,17.93-.27,26.68-.43,8.89-.16,18.09-.33,27.13-.43,6.2-.07,12.52-.1,19.32-.1s13.51.03,21.14.1h.22c8.26,0,13.22-3.98,13.26-10.66.02-3.22-.97-5.85-2.94-7.84-2.33-2.34-5.88-3.58-10.28-3.58h-.19c-5.77.05-11.99.07-19.59.07-4.66,0-9.33,0-13.99-.02-4.46,0-8.92-.01-13.39-.02-4.26,0-8.52,0-12.78-.01-4.26,0-8.52-.01-12.79-.01Zm-7.87-17.17c6.99,0,14.1.06,20.98.11,6.88.06,14,.11,21,.11,15.41,0,27.28-.28,38.46-.92,11.05-.63,13.33-6.45,13.3-11.22-.04-6.73-5.08-10.91-13.13-10.91h-.16c-6.61.04-13.22.06-19.83.06-4.48,0-8.95,0-13.43-.01-4.48,0-8.95-.01-13.43-.01h-.23c-4.36,0-8.71-.01-13.07-.02-4.36-.01-8.72-.02-13.08-.02-8.35,0-15.12.05-21.3.14h-.53c-4.46.07-10.02.15-12.33,6.24-1.58,4.17-1.28,8.17.86,11.27,2.35,3.4,6.55,5.28,11.83,5.28h.31c4.25-.06,8.76-.09,13.78-.09Zm19.6-112.81c-10.81,0-21.61,0-32.42.01-11.8,0-15.04,3.2-15.05,14.85,0,11,0,22,0,32.99.02,10.42,4.52,15.06,14.61,15.06h.37c8.63-.1,17.4-.24,25.89-.39,12.1-.2,24.62-.41,36.92-.47,10.55-.05,22.17-.08,36.55-.08,7.13,0,14.25,0,21.38.01,7.13,0,14.25.01,21.38.01,3.89,0,7.77,0,11.66,0,8.4,0,13.22-4.78,13.22-13.08,0-8.66,0-17.32,0-25.98v-9.01c0-9.36-4.58-13.91-13.99-13.92-11.12,0-22.24-.01-33.36-.01h-87.18Z"/>
        <path d="m26.35,209.96v2h.1c24.63.11,48.83.13,69.25.13,8.41,0,16.81,0,25.22,0,8.41,0,16.82,0,25.22,0h4.25c9.41,0,18.81,0,28.22,0,9.41,0,18.82,0,28.22,0,18.56,0,43,0,67.49-.08h.09c.62,0,1.06.02,1.37.04-.1.34-.23.73-.34,1.09-.11.33-.22.68-.34,1.07-.89,2.86-1.81,5.77-2.71,8.59-4.64,14.57-9.44,29.64-10.96,45.17-.56,5.78-2.62,10.82-4.8,16.16-1.53,3.75-3.11,7.63-4.12,11.77-6.27,25.8-13.34,51.87-20.17,77.08-2.37,8.76-4.83,17.82-7.22,26.74-.61,2.26-1.29,4.56-1.96,6.78-1.04,3.48-2.11,7.08-2.93,10.7-.24,1.07-.44,1.07-.8,1.07-.32,0-.71-.06-1.13-.12-.51-.08-1.05-.16-1.61-.16-4.72,0-9.45.01-14.18.01-12.64,0-25.5-.02-37.93-.04-12.64-.02-25.28-.04-37.92-.04-28.69,0-50.71.12-71.41.38-.2,0-.39,0-.59,0-18.95,0-29.42-11.81-31.13-22.78-.64-4.09-.55-8.45-.47-12.67.03-1.46.06-2.96.06-4.45,0-15.57,0-31.13,0-46.7,0-38.09,0-77.48-.11-116.22,0-1.68.16-2.7.5-3.04.23-.23.91-.51,2.84-.51v-2m48.31,83.02h.38c8.65-.1,17.43-.24,25.93-.39,12.09-.2,24.59-.41,36.87-.47,10.54-.05,22.14-.08,36.5-.08,7.13,0,14.27,0,21.4.01,7.14,0,14.27.01,21.41.01,3.89,0,7.77,0,11.65,0,8.9,0,14.22-5.27,14.22-14.08,0-8.72,0-17.44,0-26.17v-8.82c0-10.03-4.9-14.91-14.99-14.92-11.08,0-22.16-.01-33.24-.01h-22.37s-20.88,0-20.88,0h-22.19s-22.19,0-22.19,0c-10.7,0-21.4,0-32.11.01-12.44,0-16.04,3.56-16.05,15.85,0,11.35,0,22.46,0,33,.02,10.96,4.98,16.06,15.61,16.06m-.85,49.98h.33c4.25-.06,8.75-.09,13.77-.09,6.99,0,14.1.06,20.97.11,6.88.06,14,.11,21,.11,15.43,0,27.31-.28,38.52-.92,11.83-.67,14.27-7.02,14.24-12.23-.05-7.34-5.46-11.9-14.13-11.9h-.16c-5.8.04-12.09.06-19.81.06-4.49,0-8.98,0-13.47-.01-4.49,0-8.98-.01-13.48-.01h-.16c-4.35,0-8.71-.01-13.06-.02-4.35-.01-8.71-.02-13.06-.02-8.37,0-15.14.05-21.33.14h-.52c-4.52.07-10.7.15-13.25,6.88-1.7,4.49-1.36,8.82.97,12.19,2.51,3.63,7.12,5.71,12.65,5.71m74.89,15.14c-4.65,0-9.3,0-13.94-.02-4.47,0-8.94-.02-13.41-.02-4.27,0-8.54,0-12.8-.01-4.27,0-8.54-.02-12.81-.02-8.4,0-15.19.03-21.39.1h-.57c-4.11.04-9.23.08-12.43,5.09-3.73,5.85-2.49,10.21-.79,12.84,2.88,4.45,7.57,6.9,13.22,6.9h.21c8.9-.1,17.95-.27,26.7-.43,8.89-.16,18.08-.33,27.11-.43,6.19-.07,12.51-.1,19.31-.1s13.51.03,21.13.1h.23c8.88,0,14.21-4.35,14.26-11.65.02-3.44-1.09-6.4-3.23-8.55-2.52-2.54-6.32-3.88-10.99-3.88h-.19c-5.77.05-12,.07-19.61.07M26.35,209.96c-4.4,0-5.35,1.26-5.34,5.55.15,54.3.09,108.61.11,162.91,0,5.81-.44,11.73.44,17.42,1.96,12.58,13.7,24.47,33.1,24.47.2,0,.41,0,.61,0,23.8-.31,47.59-.38,71.39-.38,25.28,0,50.57.09,75.85.09,4.73,0,9.45,0,14.18-.01h0c.84,0,1.82.28,2.74.28,1.19,0,2.27-.47,2.75-2.63,1.32-5.87,3.31-11.59,4.87-17.41,9.26-34.59,18.94-69.08,27.4-103.87,2.35-9.66,7.96-17.87,8.97-28.21,1.79-18.31,8.16-35.81,13.59-53.36,1.2-3.86,1.99-4.79-2.6-4.79h-.09c-22.5.06-44.99.08-67.49.08-18.81,0-37.63,0-56.45,0-1.42,0-2.83,0-4.25,0-16.81,0-33.63.01-50.44.01-23.08,0-46.16-.02-69.24-.13-.04,0-.07,0-.11,0h0Zm48.31,81.02c-9.56,0-13.6-4.29-13.61-14.06-.02-11-.02-21.99,0-32.99,0-11.14,2.73-13.84,14.05-13.85,10.7,0,21.4-.01,32.11-.01,14.79,0,29.58,0,44.37,0,14.41,0,28.83,0,43.24,0,11.08,0,22.16,0,33.24.01,8.95,0,13,4.07,13,12.92,0,11.66,0,23.33,0,34.99,0,7.71-4.35,12.07-12.22,12.08-3.89,0-7.77,0-11.65,0-14.27,0-28.54-.02-42.81-.02-12.17,0-24.34.02-36.51.08-20.94.11-41.88.63-62.82.86-.12,0-.24,0-.36,0h0Zm-.85,49.98c-9.77,0-14.92-6.84-11.76-15.19,2.15-5.68,7.38-5.52,11.94-5.59,7.1-.11,14.2-.14,21.3-.14,8.71,0,17.42.05,26.13.05h.16c8.98,0,17.96.02,26.95.02,6.61,0,13.21-.01,19.82-.06.05,0,.1,0,.15,0,6.9,0,12.09,3.18,12.13,9.92.04,6.97-4.95,9.8-12.35,10.22-12.8.73-25.6.92-38.4.92-13.99,0-27.98-.23-41.97-.23-4.6,0-9.2.02-13.8.09-.1,0-.2,0-.3,0h0Zm74.89,19.14c6.54,0,13.08-.02,19.62-.07.06,0,.12,0,.18,0,7.2,0,12.27,3.5,12.22,10.41-.04,6.87-5.49,9.66-12.26,9.66-.07,0-.14,0-.21,0-7.05-.06-14.1-.1-21.15-.1-6.44,0-12.89.03-19.33.1-17.94.19-35.87.66-53.81.86-.06,0-.13,0-.19,0-4.75,0-8.94-1.98-11.54-5.99-2.24-3.47-1.41-7.23.79-10.68,2.74-4.29,7.21-4.12,11.34-4.16,7.12-.08,14.24-.1,21.36-.1,8.54,0,17.08.03,25.61.03,9.12,0,18.24.03,27.35.03h0Z"/>
      </g>
      <g>
        <path class="cls-1" d="m30.94,119.46c-4.25,0-6.69-.61-7.93-1.97-1.25-1.38-1.58-3.81-1.14-8.4.36-3.72.3-7.52.25-11.2-.08-5.59-.17-11.37,1.23-16.84,2.9-11.34,14.8-19.9,27.68-19.92,44.36-.05,88.71-.06,133.07-.07,43.09,0,86.19-.02,129.28-.06,1.38,0,2.28.23,2.62.67.32.42.31,1.27-.04,2.54-1.68,6.2-3.37,12.39-5.06,18.58-3.07,11.23-6.25,22.84-9.27,34.29-.5,1.89-1.34,2.03-2.57,2.03-.27,0-.54-.01-.81-.02-.31-.01-.62-.02-.93-.02h-134.42c-11.66,0-23.32-.03-34.98-.07-11.66-.04-23.33-.07-34.99-.07-24.35,0-43.16.16-60.96.52-.35,0-.69.01-1.02.01Z"/>
        <path d="m313.39,62c1.42,0,1.79.26,1.8.26h0s.15.41-.2,1.69c-1.68,6.21-3.38,12.41-5.07,18.61-3.07,11.22-6.24,22.82-9.26,34.27-.34,1.29-.63,1.29-1.6,1.29-.25,0-.51-.01-.77-.02-.32-.01-.64-.02-.97-.02-21.71,0-43.42,0-65.12,0h-69.3c-11.66,0-23.52-.04-34.98-.07-11.47-.04-23.32-.07-34.98-.07-24.36,0-43.17.16-60.99.52-.34,0-.67.01-1,.01-3.89,0-6.17-.52-7.19-1.64-1.03-1.13-1.29-3.41-.89-7.63.36-3.78.31-7.61.25-11.31-.09-5.78-.17-11.23,1.2-16.58,2.79-10.91,14.28-19.15,26.71-19.16,44.29-.05,89.32-.06,132.87-.07,42.44,0,86.32-.02,129.47-.06h.02m0-2h-.02c-87.45.1-174.9.03-262.35.13-13.37.02-25.62,8.86-28.64,20.67-2.36,9.22-.6,18.84-1.5,28.19-.84,8.69.79,11.46,10.07,11.46.33,0,.68,0,1.04-.01,20.31-.41,40.63-.52,60.95-.52,23.32,0,46.65.14,69.97.14,23.1,0,46.2,0,69.3,0,21.71,0,43.42,0,65.12,0h0c.59,0,1.18.04,1.74.04,1.54,0,2.89-.33,3.53-2.78,4.65-17.65,9.56-35.24,14.33-52.86.79-2.93.18-4.48-3.53-4.48h0Z"/>
      </g>
      <path class="cls-2" d="m158.54,140.07c44,0,87.99.08,131.99-.09,5.89-.02,6,1.68,4.41,6.73-4.03,12.78-7.38,25.78-10.78,38.75-.9,3.44-2.37,4.71-6.11,4.71-83.83-.12-167.65-.12-251.48,0-4.42,0-5.66-1.21-5.57-5.6.28-12.99.28-26,0-38.99-.09-4.37,1.12-5.62,5.55-5.61,44,.16,87.99.1,131.99.1Z"/>
      <g>
        <path class="cls-1" d="m548.14,379.61c-1.5,0-3.02-.1-4.53-.3-3.01-.4-6.25-.59-10.19-.59-2.74,0-5.53.09-8.23.18-2.68.09-5.45.18-8.16.18h-225.65c-2.78,0-5.41,0-5.87-.61-.43-.58.22-2.86,1.04-5.76.18-.64.38-1.33.59-2.08,3.32-11.93,7.61-27.71,11.4-43.9.87-3.7,1.52-7.6,2.15-11.36,1.22-7.3,2.38-14.2,4.97-20.03,5.52-12.4,8.69-25.44,11.76-38.06,1.7-7,3.46-14.24,5.6-21.25,5.01-16.44,9.24-33.4,13.32-49.8.93-3.74,1.86-7.48,2.81-11.22.91-3.6,2.63-4,6.09-4,47.95.07,96.12.1,143.22.1,28.75,0,57.5-.01,86.26-.04h1.08c1.74,0,3.02.05,3.65.69.64.65.91,2.11.87,4.59-.48,25.25-.4,50.93-.31,75.76.03,9.07.06,18.15.06,27.22,0,18.6,0,37.19,0,55.79v12.69c0,17.84-14.02,31.81-31.91,31.81Zm-58.42-99.75c-13.46,0-22.48,6.46-26.81,19.21-4.75,13.99-2.86,32.9,18.13,40.11,8.13,2.8,16.18,3.16,22.28,3.16,3.5,0,7.06-.14,10.5-.27,3.42-.13,6.95-.27,10.41-.27,1.13,0,2.26.01,3.39.05.31,0,.62.01.92.01,13.14,0,28.85-8.5,32.09-24.27,2.89-14.06-2.91-31.54-19.33-36.23-3.53-1.01-7.44-1.48-12.28-1.48-2.17,0-4.3.09-6.36.17-1.98.08-3.84.16-5.66.16-1.6,0-2.98-.06-4.21-.19h-.1c-2.64,0-5.08.03-7.38.06-2.06.03-4.01.06-5.9.06-2.71,0-4.92-.06-6.96-.18-.93-.06-1.85-.08-2.73-.08Zm-111.94.12c-4.07,0-7.21.04-10.18.13-3.24.1-6.96.39-9.97,1.82-12.12,5.76-18.84,17.93-17.54,31.74,1.17,12.4,10.14,22.73,22.85,26.34,6.91,1.96,13.75,2.21,18.93,2.21,2.98,0,6.01-.1,8.94-.19,2.91-.09,5.92-.19,8.87-.19,1.82,0,3.47.04,5.04.11.72.03,1.44.05,2.15.05,9.18,0,17.27-2.84,24.06-8.43,9.05-7.47,12.91-17.46,10.86-28.13-2.33-12.18-8.97-20.16-19.72-23.73-4.78-1.59-9.52-1.77-12.68-1.77-2.11,0-4.18.09-6.18.18-1.9.09-3.69.17-5.42.17s-3.14-.08-4.4-.25h-.06s-.07,0-.07,0c-2.99,0-5.79-.01-8.46-.03-2.43-.01-4.74-.02-6.99-.02Z"/>
        <path d="m345.23,172.01h.06c47.94.07,96.14.1,143.25.1,28.75,0,57.74-.01,86.17-.04h.53s.55,0,.55,0c1.01,0,2.55,0,2.93.39.19.2.64.97.58,3.87-.48,25.27-.4,50.96-.31,75.8.03,8.91.06,18.13.06,27.2,0,18.88,0,37.77,0,56.65v11.82c0,17.28-13.58,30.81-30.91,30.81-1.45,0-2.93-.1-4.4-.29-3.05-.41-6.34-.59-10.33-.59-2.76,0-5.55.09-8.26.18-2.67.09-5.44.18-8.14.18-15.78,0-31.56,0-47.33,0h-21.97s-21.97,0-21.97,0h-133.15s-.6,0-.6,0h-.61c-1.8,0-4.21,0-5.02-.25-.01-.78.58-2.85,1.15-4.85.18-.64.38-1.33.59-2.08,3.32-11.94,7.61-27.73,11.41-43.94.87-3.73,1.53-7.64,2.16-11.42,1.21-7.24,2.36-14.08,4.9-19.79,5.56-12.48,8.74-25.57,11.82-38.23,1.7-6.99,3.45-14.21,5.58-21.19,5.02-16.46,9.25-33.43,13.34-49.85.93-3.74,1.87-7.49,2.81-11.23.72-2.86,1.68-3.24,5.11-3.24m158.1,171.33c3.52,0,7.09-.14,10.54-.27,3.41-.13,6.93-.27,10.37-.27,1.19,0,2.28.02,3.36.05.32,0,.63.01.95.01,13.54,0,29.73-8.79,33.07-25.07,2.98-14.5-3.03-32.53-20.03-37.4-3.63-1.04-7.62-1.52-12.56-1.52-2.19,0-4.33.09-6.4.17-1.96.08-3.82.16-5.62.16-1.57,0-2.91-.06-4.11-.19h-.1s-.1-.01-.1-.01c-2.64,0-5.06.03-7.39.07-2.06.03-4,.06-5.88.06-2.69,0-4.88-.06-6.9-.18-.95-.06-1.89-.09-2.79-.09-13.93,0-23.27,6.69-27.75,19.89-4.9,14.43-2.93,33.92,18.75,41.38,8.27,2.84,16.43,3.21,22.61,3.21m-105.56-64.04c-1.65,0-3.05-.08-4.27-.24l-.13-.02h-.13c-2.99,0-5.79-.01-8.46-.03-2.43-.01-4.75-.02-7-.02-4.07,0-7.22.04-10.21.13-3.35.1-7.19.41-10.37,1.92-12.51,5.95-19.45,18.5-18.11,32.74,1.21,12.81,10.46,23.49,23.57,27.21,7.03,1.99,13.95,2.25,19.2,2.25,3,0,6.03-.1,8.97-.19,2.9-.09,5.91-.19,8.84-.19,1.81,0,3.44.04,4.99.11.73.04,1.47.05,2.19.05,9.42,0,17.72-2.92,24.69-8.66,9.35-7.71,13.33-18.04,11.21-29.09-2.37-12.38-9.42-20.85-20.39-24.49-4.92-1.63-9.77-1.82-12.99-1.82-2.14,0-4.22.09-6.23.18-1.88.08-3.66.16-5.38.16m-52.54-109.29c-3.7,0-5.99.52-7.05,4.75-5.14,20.39-9.99,40.88-16.12,60.98-5.98,19.62-8.76,40-17.31,59.19-4.05,9.09-4.7,20.96-7.18,31.57-3.45,14.72-7.35,29.32-11.39,43.86-2.64,9.51-3.44,9.72,5.21,9.72.38,0,.78,0,1.2,0,22.86,0,45.71,0,68.57,0h64.57c14.65,0,29.3,0,43.94,0,15.78,0,31.56,0,47.33,0h.01c5.45,0,10.94-.35,16.39-.35,3.38,0,6.74.14,10.06.58,1.57.21,3.13.31,4.66.31,18.03,0,32.9-14.04,32.9-32.81,0-22.83.01-45.65,0-68.48-.01-34.32-.4-68.65.25-102.96.11-6.03-1.65-6.3-5.51-6.3-.34,0-.7,0-1.08,0-28.72.02-57.44.04-86.17.04-47.75,0-95.5-.03-143.25-.1h-.06Zm158.1,171.33c-7.36,0-14.7-.61-21.96-3.1-19.22-6.61-22.69-23.57-17.51-38.84,4.3-12.65,13.14-18.53,25.86-18.53.87,0,1.77.03,2.67.08,2.3.14,4.61.18,7.02.18,4.01,0,8.29-.12,13.28-.12,1.39.14,2.83.2,4.32.2,3.77,0,7.84-.33,12.02-.33,3.94,0,8,.3,12.01,1.44,15.76,4.51,21.43,21.42,18.62,35.07-3.11,15.15-18.12,23.47-31.11,23.47-.3,0-.6,0-.89-.01-1.14-.03-2.28-.05-3.42-.05-6.96,0-13.94.54-20.91.54h0Zm-105.56-60.04c3.62,0,7.54-.35,11.6-.35s8.22.34,12.36,1.72c11.26,3.74,17.01,12.32,19.05,22.97,2.05,10.69-2.02,20.16-10.52,27.17-6.79,5.6-14.77,8.21-23.42,8.21-.69,0-1.4-.02-2.1-.05-1.69-.08-3.39-.11-5.09-.11-5.93,0-11.88.38-17.81.38-6.26,0-12.49-.43-18.65-2.17-12.33-3.5-21-13.58-22.12-25.47-1.24-13.19,5.13-25.11,16.98-30.75,2.84-1.35,6.35-1.63,9.58-1.73,3.33-.1,6.65-.13,10.14-.13,4.72,0,9.74.05,15.46.05,1.44.19,2.96.26,4.53.26h0Z"/>
      </g>
      <g>
        <path class="cls-1" d="m367.3,79.15c-.95,0-1.19-.13-1.25-.2-.09-.13-.33-.75.49-3.44,4.84-15.82,8.73-32.21,12.49-48.06l.83-3.5c.62-2.62,1.52-2.86,3.74-2.86h.94c10.1,0,20.38-.06,30.31-.13,9.93-.06,20.2-.13,30.3-.13,16.22,0,29.51.17,41.83.53,12.08.35,24.35.38,36.22.41,9.37.02,19.05.05,28.57.23,16.24.31,27.32,11.59,28.23,28.72.23,4.36.18,8.83.12,13.15-.05,3.7-.09,7.53.04,11.3.06,1.73-.13,2.73-.62,3.23-.48.5-1.49.73-3.17.73-20.49-.1-40.82-.11-56.24-.11-7.96,0-48.76.02-48.76.02v.03h-44.98c-18.98,0-37.95,0-56.93.03-.44,0-.85.01-1.24.02-.33.01-.64.02-.93.02Z"/>
        <path d="m445.14,21.83c16.21,0,29.5.17,41.81.53,12.1.35,24.37.38,36.25.41,9.36.02,19.04.05,28.56.23,15.67.3,26.37,11.21,27.25,27.78.23,4.33.18,8.78.12,13.09-.05,3.71-.09,7.55.04,11.34.06,1.81-.18,2.35-.34,2.5-.12.13-.61.43-2.45.43h-.09c-20.4-.1-40.73-.11-56.16-.11-7.96,0-15.92,0-23.88,0-7.96,0-15.92,0-23.88,0l-1.99.03h-21.07s-23.06,0-23.06,0c-15.66,0-36.26,0-56.79.03-.45,0-.87.01-1.27.03-.32,0-.62.02-.9.02-.13,0-.24,0-.33,0,.04-.39.16-1.1.54-2.35,4.85-15.85,8.74-32.26,12.5-48.12l.83-3.5c.48-2.02.89-2.09,2.77-2.09h.91c10.11,0,20.38-.06,30.32-.13,9.93-.06,20.2-.13,30.3-.13m0-2c-20.2,0-40.41.25-60.62.25h-.92c-2.55,0-3.96.47-4.71,3.63-4.1,17.25-8.12,34.56-13.3,51.5-1.36,4.43-.44,4.94,1.71,4.94.63,0,1.36-.04,2.18-.04,18.93-.03,37.86-.03,56.79-.03,15.37,0,30.74,0,46.11,0v-.03c15.92,0,31.83-.02,47.75-.02,18.71,0,37.44.02,56.15.11h.1c3.95,0,4.92-1.19,4.79-5-.28-8.15.27-16.33-.16-24.47-.89-16.84-11.71-29.33-29.21-29.67-21.59-.42-43.18-.01-64.78-.64-13.95-.41-27.91-.53-41.87-.53h0Z"/>
      </g>
      <path class="cls-2" d="m463.5,150.06c-37.33,0-74.66-.06-111.99.07-4.74.02-6.19-.96-4.73-5.98,3.84-13.18,7.23-26.5,10.65-39.8.86-3.33,2.54-4.37,5.97-4.36,70.99.13,141.98.16,212.98.08,3.89,0,4.72,1.36,4.67,4.92-.17,13.33-.21,26.67.02,39.99.07,3.99-1.16,5.05-5.08,5.04-37.49-.14-74.99-.08-112.49-.08v.12Z"/>
      <path class="cls-3" d="m151.57,230.07c25.49,0,50.99-.01,76.48,0,8.95,0,13,4.07,13,12.92,0,11.66,0,23.33,0,34.99,0,7.71-4.35,12.07-12.22,12.08-30.33.03-60.65-.09-90.98.06-20.94.11-41.88.63-62.82.86-9.82.11-13.96-4.16-13.97-14.06-.02-11-.02-21.99,0-32.99,0-11.14,2.73-13.84,14.05-13.85,25.49-.02,50.99,0,76.48,0Zm-.47,20.05v.03c-17.81,0-35.62-.03-53.43.02-5.63.02-12.9-1.77-16.36,1.03-2.78,2.25-.43,10.29-1.29,15.6-.67,4.13,1.02,4.25,4.07,4.19,12.26-.2,24.51-.48,36.76-.76,28.28-.63,56.59-.2,84.88-.2,15.35,0,15.23-.02,15.36-15.3.03-3.62-.76-4.75-4.59-4.72-21.8.2-43.61.1-65.41.1Z"/>
      <path class="cls-3" d="m121.42,320.08c15.64,0,31.29.07,46.93-.03,6.97-.05,12.24,3.13,12.28,9.92.04,6.97-4.95,9.8-12.35,10.22-31.39,1.79-62.79.34-94.18.78-9.96.14-15.26-6.75-12.06-15.19,2.15-5.67,7.38-5.52,11.94-5.59,15.81-.25,31.62-.1,47.43-.1Z"/>
      <path class="cls-3" d="m121.35,360.07c15.66,0,31.32.09,46.98-.04,7.29-.06,12.44,3.44,12.4,10.41-.05,6.94-5.6,9.72-12.47,9.66-13.49-.11-26.99-.14-40.48,0-17.94.19-35.87.66-53.81.86-4.82.05-9.1-1.92-11.73-5.99-2.24-3.47-1.41-7.23.79-10.68,2.74-4.29,7.21-4.12,11.34-4.16,15.66-.17,31.32-.07,46.98-.07Z"/>
      <path class="cls-3" d="m393.23,281.04c8.06,1.06,18.38-1.73,28.5,1.63,11.26,3.74,17.01,12.32,19.05,22.97,2.05,10.69-2.02,20.16-10.52,27.17-7.34,6.05-16.06,8.61-25.52,8.16-13.85-.66-27.87,1.98-41.55-1.9-12.33-3.5-21-13.58-22.12-25.47-1.24-13.19,5.13-25.11,16.98-30.75,2.84-1.35,6.35-1.63,9.58-1.73,7.82-.24,15.66-.08,25.6-.08Zm-2.54,38.96c6.5,0,13.01.2,19.5-.06,5.7-.23,9.38-2.95,9.94-9.17.65-7.17-3.74-10.29-9.58-10.53-12.98-.54-26-.4-38.99-.06-5.82.15-10.57,2.9-10.4,9.69.17,6.86,4,10.31,11.03,10.17,6.16-.13,12.33-.03,18.5-.03Z"/>
      <path class="cls-3" d="m512.7,281.01c8.21.85,18.4-1.54,28.34,1.31,15.76,4.51,21.43,21.42,18.62,35.07-3.18,15.5-18.82,23.85-32,23.46-15.43-.46-31.05,2.63-46.29-2.61-19.22-6.61-22.69-23.57-17.51-38.84,4.59-13.52,14.38-19.3,28.53-18.45,6.13.37,12.31.06,20.3.06Zm-2.3,39c6.66,0,13.34.27,19.98-.09,5.04-.27,9.09-2.28,9.74-8.26.73-6.74-2.72-11.04-8.75-11.36-13.12-.69-26.32-.53-39.46-.09-6.06.2-10.81,3.83-10.65,10.38.17,6.94,4.85,9.71,11.65,9.45,5.82-.22,11.66-.05,17.49-.04Z"/>
    </g>
  </g>
</svg>