<?xml version="1.0" encoding="UTF-8"?>
<svg id="Layer_2" data-name="Layer 2" xmlns="http://www.w3.org/2000/svg" viewBox="0 0 599.87 595.77">
  <defs>
    <style>
      .cls-1 {
        fill: #9bba72;
      }

      .cls-2 {
        fill: #00b261;
      }

      .cls-3 {
        fill: #e40e7f;
      }

      .cls-4 {
        fill: #e5a14e;
      }

      .cls-5 {
        fill: #e3cb5b;
      }

      .cls-6 {
        fill: #ea5454;
      }

      .cls-7 {
        fill: #373737;
      }

      .cls-8 {
        fill: #cb586a;
      }
    </style>
  </defs>
  <g id="Header">
    <g>
      <path class="cls-3" d="m512.12,41.48c.03-11.13-4.85-19.93-11.71-27.49C492.51,5.29,482.2.05,470.05.05,327.55,0,185.05.03,42.55,0,21.44,0,.03,19.04.03,42.43c.03,86.34-.01,172.67-.03,259,0,11.6,5.78,20.43,13.55,28.26,9.1,9.18,20.36,12.13,33.02,12.07,47.67-.19,143-.07,143-.07,0,0,36.58.66,37.25.16.45-.34.92-.68,1.4-1.04,25.45-30.78,58.83-54.78,97-68.87.4-.16.8-.32,1.21-.48,13.61-5.3,27.64-8.5,41.78-11.77,14.76-3.41,29.57-4.16,44.49-3.52,17.88.77,35.4,4.06,52.61,8.92,11.73,3.32,22.92,7.93,33.8,13.27,2.77,1.35,5.53,2.75,8.26,4.19.9.47,1.63.78,2.23.92,2.01.48,2.53-.86,2.52-4-.09-79.33-.18-158.66,0-237.99ZM117.61,204.53c-.53,8.72-9.44,19.6-19.79,19.46-9.48-.13-18.97-.03-28.45-.03v.02c-8.99,0-17.98-.14-26.96.04-9.1.18-14.86-4.97-19.23-11.98-1.28-2.04-1.34-5.07-1.31-7.64.11-9.45-1.07-18.93.74-28.35,1.6-8.29,9.77-15.82,18.49-15.93,19.13-.24,38.28-.28,57.41.01,9.56.15,18.83,10.53,19.17,20.95.25,7.81.41,15.66-.07,23.45Zm-2.24-65.49c-21.47-.67-42.98-.14-64.48-.24-13.08-.05-26.81-11.86-28.11-24.94-1.95-19.56-1.96-39.2.15-58.76,1.1-10.28,15.1-22.08,26.2-22.32,12.16-.26,24.32-.06,36.49-.06v-.11c10.16,0,20.34.36,30.49-.07,19.93-.86,34.08,16.23,33.69,33.69-.28,12.83-.47,25.68.06,38.49.8,19.54-17.11,34.86-34.49,34.32Zm119.48,64.4c-.37,11.42-9.73,20.44-21.1,20.54-8.65.07-17.3.01-25.96.01-9.48,0-18.99-.42-28.45.11-9.46.54-21.12-9.76-20.5-20.64.44-7.8-.01-15.64.12-23.46.18-10.27,9.41-19.78,19.76-19.9,18.8-.21,37.61-.25,56.41.02,10.69.15,18.77,9.98,19.65,20.86.59,7.44.31,14.98.07,22.46Zm117.19-1.77c-.23,13.32-7.82,22.35-22.12,22.33-8.82,0-17.63,0-26.45,0v-.05c-9.32,0-18.64.14-27.95-.04-10.24-.2-19.17-9.22-19.4-19.55-.18-7.81.14-15.64-.09-23.45-.31-10.57,9.62-20.27,20.32-20.7,17.44-.7,34.94-.48,52.4-.11,15.18.32,23.9,10.01,23.34,24.6-.21,5.65.04,11.32-.05,16.97Zm116.86,4.92c-2.37,10.39-9.36,17.5-20.9,17.42-8.99-.07-17.97-.02-26.96-.02v-.02c-9.15,0-18.34-.45-27.45.13-9.5.6-20.67-10.7-19.91-20.07.62-7.61.64-15.35-.02-22.95-.9-10.37,11.15-21.61,21.18-21.24,17.28.64,34.62.5,51.91.05,10.81-.29,21.66,8.42,22.67,19.39.83,9.04,1.52,18.33-.52,27.31Z"/>
      <path class="cls-7" d="m394.93,326.34c0-7.34-.02-14.67-.02-22,0,7.33.01,14.67.01,22v11.71c0-3.91,0-7.81,0-11.71Zm21.12.18c0,6.25,0,12.49,0,18.73v-21.2c0,.82,0,1.65,0,2.47Zm132.65,153.43c-3.87,0-7.74,0-11.6.02,3.86,0,7.73-.01,11.6-.01h19.39c-6.46,0-12.93,0-19.39,0Zm31.1,112.84h0s.03-.02.03-.02c-.01.01-.02.01-.03.02Zm8-233.9v.02s.02,0,.03.02l-.03-.04Zm9.94,18.05s.01.03.02.04c.01,0,.03.01.04.01l-.06-.05Zm2.12,181.89h0s0,0,0,0h0Z"/>
      <path class="cls-1" d="m591.08,458.97c-14.33-.23-28.67-.09-43-.09s-28.67-.1-43,.07c-3.58.05-4.73-.93-5.12-4.67-1.61-15.34-8.24-28.81-17.03-41.2-2.02-2.85-2.05-4.32.29-6.65,20.92-20.8,41.8-41.64,62.56-62.6,2.3-2.31,3.48-1.33,4.94.43,13.92,16.74,25.43,34.93,33.25,55.33,6.71,17.52,11.65,35.4,12.1,54.35.09,3.99-1.03,5.09-4.99,5.03Z"/>
      <path class="cls-5" d="m529.82,330.46c-20.55,20.42-41.05,40.9-61.42,61.5-2.61,2.64-4.53,1.89-6.83.19-10.18-7.51-21.44-12.62-33.77-15.4-.63-.14-1.19-.61-1.82-.74q-9.9-1.92-9.92-12.02v-18.74c0-6.24,0-12.48,0-18.73,0-12.55.12-25.11-.03-37.66-.01-1.77-.04-3.53-.07-5.3-.07-4.1,1.28-5.15,5.11-4.86,12.13.94,24.01,2.99,35.76,6.21,17.7,4.84,34.21,12.31,49.77,21.87,8.1,4.98,15.82,10.57,23.03,16.83,2.83,2.45,2.85,4.22.2,6.85Z"/>
      <path class="cls-4" d="m394.98,369.83c.03,3.46-.94,4.55-4.68,5.2-14.84,2.56-28.9,7.48-40.91,16.92-3,2.35-4.48,1.89-6.97-.61-20.91-20.98-41.96-41.83-63.04-62.64-1.69-1.66-1.49-2.7.12-3.95,8.68-6.79,17.25-13.57,26.83-19.27,12.71-7.56,26-13.68,39.75-18.64,6.47-2.33,13.64-3.31,20.48-4.97,7.88-1.9,15.96-2.05,23.87-3.39,3.99-.67,4.56.44,4.54,3.86-.05,7.33-.06,14.67-.06,22s.01,14.66.02,22c0,3.9,0,7.8,0,11.71-.01,10.59-.03,21.18.06,31.78Z"/>
      <path class="cls-2" d="m596.89,483.6c-3.05,26.73-9.32,52.51-22.37,76.29-6.34,11.58-13.44,22.64-21.79,32.92-3.03,3.73-5,4.01-8.53.41-19.59-19.98-39.42-39.72-59.16-59.54-4.72-4.74-4.38-4.53-.36-10.33,8.2-11.83,13-25.12,15.02-39.31.47-3.27,1.43-4.16,4.53-4.13,10.95.08,21.91.07,32.87.06,3.86-.01,7.73-.02,11.6-.02,6.46,0,12.93,0,19.39,0,8.19,0,16.39,0,24.58-.04,2.64,0,4.62.16,4.22,3.68Z"/>
      <path class="cls-3" d="m326.36,533.19c-20,19.57-39.66,39.49-59.44,59.29-4.26,4.27-4.59,4.27-8.82-.53-7.71-8.75-14.17-18.38-19.76-28.58-8.7-15.89-15.93-32.43-19.56-50.24-1.92-9.38-2.62-19.01-3.93-28.52-.52-3.8,1.76-3.9,4.55-3.89,7.16.03,14.33.04,21.49.04s14.33-.01,21.49,0c3.82,0,7.64,0,11.46,0,10.5.03,21.01.05,31.51-.1,3.43-.04,4.35,1.1,4.95,4.34,2.69,14.45,7.73,28.01,16.8,39.76,2.58,3.35,2.54,5.21-.74,8.42Z"/>
      <path class="cls-8" d="m425.58,494.39c-5.35,4.85-12.36,7-19.56,6.71-16.68.39-28.13-9.9-31.83-24.67-.51-2.07-1.23-4.66.41-6.15,1.37-1.24,3.44.44,5.09,1.01,7.42,2.58,14.77,5.39,22.16,8.05,5.66,2.04,11.03-.1,13.29-5.19,2.38-5.37.37-11.25-5.18-13.66-7.72-3.35-15.59-6.35-23.46-9.35-5.06-1.93-5.22-2.41-1.52-5.88,13.27-12.44,35.74-8.03,45.64,4.56,12.42,15.82,7.32,33.36-5.04,44.57Z"/>
      <path class="cls-5" d="m64.19,112.2c.07,4.33-1.01,6.18-5.5,5.51-2.29-.34-4.64-.24-6.95-.34-.31-1.14-.98-1.4-1.98-.78-5.05-1.33-6.75-5.22-6.8-9.79-.16-14.13-.2-28.27.03-42.4.11-6.69,4.5-10.45,11.27-10.52q9.85-.09,9.83,9.93c-.01,16.13-.16,32.26.1,48.39Z"/>
      <path class="cls-5" d="m127.87,99.47c-.18,2.49.03,5-.07,7.49-.26,6.31-4.44,10.57-10.74,10.65-9.31.12-18.64-.08-27.95.11-3.22.06-4.05-1.23-3.83-4.13.25-3.32.28-6.65.35-9.97.16-7.42.15-7.44,7.78-7.5,4.65-.03,9.31,0,13.97,0,5.66,0,11.32.08,16.97-.04,2.52-.06,3.71.7,3.52,3.39Z"/>
      <path class="cls-5" d="m117.9,74.9h-11.45c-5.65,0-11.3-.1-16.94.04-2.87.07-4.34-.73-4.22-3.9.16-4.48.15-8.97-.02-13.45-.11-3.13,1.28-3.97,4.19-3.93,9.13.13,18.27-.04,27.4.09,6.76.09,10.88,4.45,10.97,11.25q.13,9.9-9.93,9.9Z"/>
      <path class="cls-8" d="m51.74,117.37c-.38.17-.71.21-.98.13-.07,0-.13-.04-.19-.07-.07-.03-.13-.06-.19-.11-.24-.16-.44-.42-.62-.73,1-.62,1.67-.36,1.98.78Z"/>
      <path class="cls-3" d="m447.89,198.77c.14,3.06-.95,4.06-4,3.99-3.19-.07-6.38-.09-9.56-.09-2.98,0-5.96.02-8.93.02-.49.01-.97.01-1.46.01h-2.49c-7.48,0-14.96-.11-22.43.06-3.01.07-4.18-.85-4.02-3.96.22-4.48.16-8.98.03-13.46-.08-2.57.85-3.51,3.45-3.49,15.29.07,30.59.07,45.88,0,2.55-.01,3.58.85,3.5,3.47-.13,4.48-.17,8.98.03,13.46Z"/>
      <path class="cls-3" d="m91.28,202.77c-3.09-.08-6.19-.11-9.29-.11-4.22,0-8.45.05-12.67.04-1.05,0-2.1-.01-3.16-.01-3.16-.03-6.31-.08-9.47-.08-2.94,0-5.88.05-8.82.19-4.14.2-5.2-1.32-4.92-5.12.29-3.81.23-7.66.02-11.47-.17-3.11.66-4.44,4.1-4.4,14.98.16,29.95.14,44.92,0,3.16-.02,4.03,1.17,3.9,4.11-.18,4.15-.26,8.33.04,12.47.26,3.69-1.33,4.47-4.65,4.38Z"/>
      <path class="cls-3" d="m326.66,202.74c-14.95-.1-29.91-.12-44.87,0-3.13.03-4.05-1.08-3.92-4.05.19-4.31.21-8.65-.01-12.96-.16-3.15,1.11-3.98,4.06-3.92,7.48.16,14.96.05,22.44.05v.14c7.48,0,14.96.13,22.43-.05,3.04-.08,4.15.88,4,3.96-.22,4.31-.23,8.65,0,12.96.16,3.21-1.25,3.88-4.13,3.86Z"/>
      <path class="cls-3" d="m213.73,186.45c-.33,3.96-.25,7.98-.02,11.96.17,3.15-.72,4.39-4.13,4.36-15.13-.16-30.26-.13-45.38-.02-2.89.02-4.28-.63-4.11-3.85.24-4.31.25-8.66-.01-12.96-.2-3.44,1.25-4.2,4.38-4.13,7.48.19,14.96.06,22.44.06s14.64.17,21.94-.07c3.58-.12,5.22.72,4.89,4.65Z"/>
    </g>
    <path class="cls-6" d="m328.7,412.06c-2.29,2.98-4.87,5.87-6.44,9.21-1.57,3.33-3.08,3.83-6.37,2.51-13.74-5.49-27.53-10.85-41.39-16.01-4.7-1.74-9.84-3.11-14.39.34-7.09,5.39-5.47,14.9,3.29,18.56,9.49,3.97,19.18,7.5,28.8,11.16,4.76,1.82,9.63,3.38,14.35,5.32,3.13,1.3,6.06,2.29,4.53,7.45-2.38,8.05-1.8,8.21-10.02,8.21-27.49,0-54.99-.06-82.48.08-2.65,0-4.06-.52-4.33-1.95.03-.61.07-1.22.12-1.82.38-5.54,1.01-11.01,1.86-16.41.31-1.96.65-3.9,1.02-5.84.36-1.22.56-2.49.75-3.75,1.88-8.94,4.38-17.66,7.46-26.1.08-.21.16-.42.24-.64,5.32-14.13,12.26-27.52,20.77-40.21,4.09-6.1,8.54-12.03,13.54-17.52,2.09-2.29,3.36-2,5.23-.12,20.95,20.99,41.91,41.97,62.93,62.89,1.6,1.59,1.95,2.79.53,4.64Z"/>
    <path class="cls-8" d="m218,429.12c-.19,1.26-.39,2.53-.75,3.75.23-1.25.48-2.5.75-3.75Z"/>
  </g>
</svg>