<?xml version="1.0" encoding="UTF-8"?>
<svg id="Layer_2" data-name="Layer 2" xmlns="http://www.w3.org/2000/svg" viewBox="0 0 34.7 34.93">
  <defs>
    <style>
      .cls-1 {
        fill: #f10d86;
      }

      .cls-2 {
        fill: #aaa;
      }
    </style>
  </defs>
  <g id="Header">
    <g>
      <path class="cls-2" d="m27.1,1.78c-.1.13-.16.22-.23.29-.7.73-1.41,1.46-2.11,2.19-.14.15-.3.29-.43.45-.13.16-.29.21-.49.21-6.7,0-13.39,0-20.09,0q-.61,0-.62.61c0,8.63,0,17.27,0,25.9q0,.33.34.33c8.73,0,17.47,0,26.2,0,.04,0,.09,0,.13,0,.16.04.19-.02.19-.18,0-1.51,0-3.02,0-4.53,0-3.65,0-7.3,0-10.95,0-.5.02-1.01.02-1.51,0-.26.08-.48.22-.69.92-1.38,1.84-2.77,2.76-4.15.02-.03.03-.07.04-.1.02.01.03.03.05.04.01.22.03.45.03.67,0,7.31,0,14.62,0,21.92,0,.41-.03.82-.12,1.22-.17.79-1.2,1.42-1.88,1.41-1.04-.02-2.09,0-3.13,0-1.71,0-3.43.01-5.14.01-2.14,0-4.28-.01-6.41-.01-1.5,0-2.99.01-4.49.01-3.26,0-6.52-.03-9.78-.02-1.08,0-2.14-.89-2.15-2.17,0-4.58,0-9.16,0-13.74,0-3.15,0-6.31,0-9.46,0-1.85,0-3.7,0-5.55,0-.63.19-1.19.66-1.63.37-.35.79-.56,1.31-.56,1.64,0,3.28,0,4.92,0,3.37,0,6.74-.01,10.11-.02,2.46,0,4.91,0,7.37,0,.81,0,1.63,0,2.44,0,.07,0,.14,0,.28,0Z"/>
      <path class="cls-1" d="m15.46,18.59c.44-.47.87-.94,1.31-1.4.53-.55,1.06-1.09,1.59-1.64.71-.73,1.42-1.47,2.13-2.2.63-.64,1.25-1.28,1.88-1.93.5-.52.99-1.06,1.49-1.58.53-.56,1.08-1.1,1.61-1.66,1.14-1.19,2.28-2.38,3.42-3.57.67-.7,1.35-1.39,2.03-2.09.71-.73,1.41-1.48,2.13-2.2.41-.41.84-.42,1.29-.05.37.29.47.85.21,1.25-.52.8-1.05,1.58-1.58,2.37-.53.8-1.05,1.6-1.58,2.39-.91,1.37-1.82,2.73-2.73,4.1-.67,1.01-1.33,2.02-1.99,3.03-.76,1.16-1.52,2.32-2.29,3.48-.79,1.19-1.59,2.36-2.38,3.55-.93,1.41-1.86,2.82-2.79,4.24-.52.79-1.04,1.59-1.57,2.38-.47.7-1.12,1.09-1.98,1.02-.6-.05-1.12-.32-1.45-.83-.7-1.09-1.38-2.21-2.07-3.31-.41-.65-.81-1.31-1.22-1.96-.92-1.49-1.84-2.97-2.77-4.46-.32-.52-.64-1.04-.97-1.55-.58-.9-.26-1.97.72-2.29.47-.15.94-.09,1.35.22.51.38,1.01.76,1.51,1.15,1.53,1.17,3.06,2.35,4.59,3.52.02.02.05.03.08.04Z"/>
    </g>
  </g>
</svg>