<?xml version="1.0" encoding="UTF-8"?>
<svg id="Layer_2" data-name="Layer 2" xmlns="http://www.w3.org/2000/svg" viewBox="0 0 789.99 460.25">
  <defs>
    <style>
      .cls-1 {
        fill: #fff;
      }

      .cls-2 {
        fill: #e40e7f;
      }

      .cls-3 {
        fill: #4d4d4d;
      }

      .cls-4 {
        fill: #ef7545;
      }

      .cls-5 {
        fill: #cc4249;
      }

      .cls-6 {
        fill: #1b1b1b;
      }

      .cls-7 {
        fill: #45b64d;
      }

      .cls-8 {
        fill: #d1d848;
      }

      .cls-9 {
        fill: #f4ba38;
      }
    </style>
  </defs>
  <g id="Header">
    <path class="cls-5" d="m185.5,393.82c.2-36.23,9.73-71.67,27.65-102.91L63.4,180.29C22.06,244,.17,317.77,0,394.12l185.5-.29Z"/>
    <path class="cls-4" d="m312.22,202.5L255.89,25.2c-35.43,13.33-68.73,31.71-99.06,54.66-30.08,22.77-56.69,49.63-79.16,79.89l149.22,110.22c22.11-29.71,51.43-52.89,85.33-67.48Z"/>
    <path class="cls-8" d="m562.96,269.78l152.06-106.35c-21.85-30.15-47.79-57.03-77.18-79.98-29.65-23.15-62.28-41.86-97.07-55.68l-63.44,174.53c34.01,14.54,63.42,37.72,85.63,67.48Z"/>
    <path class="cls-9" d="m395,0c-39.35,0-78.16,5.76-115.44,17.14l56.2,176.87c19.19-5.65,39.09-8.51,59.24-8.51s39.75,2.82,58.8,8.38l63.46-174.59C477.89,6.49,436.79,0,395,0Z"/>
    <path class="cls-7" d="m789.99,392.87c-.39-74.29-21.42-146.28-60.94-208.74l-152.35,106.55c17.9,31.12,27.47,66.39,27.78,102.49l185.5-.29Z"/>
    <circle class="cls-2" cx="395.25" cy="392.75" r="67.5"/>
    <path class="cls-3" d="m388.96,404.03l-133.67-180.14c-1.66-2.24-1.19-5.41,1.05-7.07,2.15-1.59,5.15-1.22,6.86.78,0,0,145.33,170.86,145.33,170.86,4.48,5.26,3.84,13.15-1.42,17.63-5.47,4.69-13.88,3.72-18.15-2.07h0Z"/>
    <g>
      <path class="cls-1" d="m660.94,255.31c.49.96,1.21,1.19,2.17.7l-2.21-4.3c-2.45-4.78-1.53-8.27,2.77-10.48,4.3-2.21,7.68-.92,10.13,3.85l1.47,2.87c2.45,4.78,1.53,8.27-2.77,10.48l-7.17,3.68c-4.3,2.21-7.68.92-10.13-3.85l-4.42-8.6,5.73-2.94,4.42,8.6Zm7.13-7.28c-.49-.96-.98-1.31-1.45-1.07-.48.25-.47.85.02,1.8l1.47,2.87c.49.96.98,1.31,1.45,1.07.48-.25.47-.85-.02-1.8l-1.47-2.87Z"/>
      <path class="cls-1" d="m677.22,267.21c-.42-.99-1.13-1.27-2.12-.84l1.91,4.44c2.12,4.93.96,8.36-3.48,10.27-4.44,1.91-7.72.4-9.84-4.54l-1.27-2.96c-2.12-4.93-.96-8.36,3.48-10.27l7.4-3.18c4.44-1.91,7.72-.4,9.84,4.54l3.82,8.88-5.92,2.55-3.82-8.88Zm-7.61,6.78c.42.99.88,1.37,1.38,1.16.49-.21.53-.81.1-1.8l-1.27-2.96c-.42-.99-.88-1.37-1.38-1.16-.49.21-.53.81-.1,1.8l1.27,2.96Z"/>
      <path class="cls-1" d="m690.53,283.12l-21.1,7.97-2.28-6.03,15.08-5.69-.57-1.51,6.6-.77,2.28,6.03Z"/>
      <path class="cls-1" d="m691.29,312.37l-6.2,1.77-3.55-12.39,6.2-1.77,3.55,12.39Z"/>
      <path class="cls-1" d="m688.89,339.31c.19,1.06.81,1.49,1.87,1.3l-.86-4.76c-.95-5.29.95-8.36,5.71-9.22,4.76-.86,7.61,1.35,8.57,6.64l.57,3.17c.95,5.29-.95,8.36-5.7,9.22l-7.93,1.43c-4.76.86-7.61-1.36-8.57-6.64l-1.72-9.51,6.34-1.14,1.72,9.51Zm8.94-4.89c-.19-1.06-.55-1.54-1.08-1.44-.53.1-.7.67-.51,1.73l.57,3.17c.19,1.06.55,1.54,1.08,1.44.53-.1.7-.67.51-1.73l-.57-3.17Z"/>
      <path class="cls-1" d="m691.74,359.72c.12,1.07.71,1.54,1.78,1.42l-.53-4.8c-.59-5.34,1.52-8.27,6.32-8.81,4.8-.53,7.5,1.87,8.09,7.21l.35,3.2c.59,5.34-1.52,8.27-6.32,8.81l-8.01.89c-4.8.53-7.5-1.87-8.09-7.21l-1.06-9.61,6.41-.71,1.06,9.61Zm9.25-4.27c-.12-1.07-.44-1.57-.98-1.51-.53.06-.74.62-.62,1.69l.35,3.2c.12,1.07.44,1.57.98,1.51.53-.06.74-.62.62-1.69l-.35-3.2Z"/>
      <path class="cls-1" d="m693.21,380.26c.05,1.07.6,1.59,1.68,1.54l-.21-4.83c-.23-5.37,2.07-8.15,6.9-8.36,4.83-.21,7.36,2.37,7.59,7.74l.14,3.22c.23,5.37-2.07,8.15-6.9,8.36l-8.05.34c-4.83.21-7.36-2.37-7.59-7.74l-.41-9.66,6.44-.27.41,9.66Zm9.52-3.63c-.05-1.07-.34-1.6-.87-1.58-.54.02-.78.57-.74,1.64l.14,3.22c.05,1.07.34,1.6.87,1.58.54-.02.78-.57.74-1.64l-.14-3.22Z"/>
    </g>
    <g>
      <path class="cls-1" d="m531.46,105.93c4.83,2.34,6.19,5.69,4.08,10.04-.76,1.58-1.83,2.55-3.21,2.92.56,1.31.46,2.75-.31,4.33-2.11,4.35-5.58,5.35-10.41,3.01l-2.9-1.41c-4.83-2.34-6.19-5.69-4.08-10.04.76-1.58,1.83-2.55,3.21-2.92-.56-1.31-.46-2.75.31-4.33,2.11-4.35,5.58-5.35,10.41-3.01l2.9,1.41Zm-7.03,14.5c.97.47,1.57.46,1.8-.02l.02-.04c.22-.45-.14-.91-1.08-1.36l-2.9-1.41c-.97-.47-1.58-.47-1.84,0-.23.48.13.96,1.1,1.43l2.9,1.41Zm3.52-7.25c.97.47,1.57.46,1.8-.02.23-.48-.13-.96-1.1-1.43l-2.9-1.41c-.97-.47-1.57-.46-1.8.02-.23.48.13.96,1.1,1.43l2.9,1.41Z"/>
      <path class="cls-1" d="m550.61,116.18c4.66,2.67,5.79,6.1,3.39,10.3-.87,1.52-2,2.42-3.4,2.69.47,1.34.27,2.78-.6,4.3-2.4,4.19-5.93,4.96-10.59,2.29l-2.8-1.6c-4.66-2.67-5.79-6.1-3.39-10.3.87-1.52,2-2.42,3.4-2.69-.47-1.34-.27-2.78.6-4.3,2.4-4.19,5.93-4.96,10.59-2.29l2.8,1.6Zm-8.01,13.98c.93.53,1.53.57,1.8.1l.02-.04c.25-.44-.08-.92-.98-1.43l-2.8-1.6c-.93-.53-1.55-.58-1.84-.13-.27.47.07.97,1,1.5l2.8,1.6Zm4-6.99c.93.53,1.53.57,1.8.1.27-.47-.07-.97-1-1.5l-2.8-1.6c-.93-.53-1.53-.57-1.8-.1-.27.47.07.97,1,1.5l2.8,1.6Z"/>
      <path class="cls-1" d="m566.16,125.77l-12.17,18.99-5.43-3.48,8.7-13.57-1.36-.87,4.83-4.56,5.43,3.48Z"/>
      <path class="cls-1" d="m584.23,148.76l-3.91,5.13-10.25-7.81,3.91-5.13,10.25,7.81Z"/>
      <path class="cls-1" d="m598.42,171.78c.79.73,1.54.71,2.28-.08l-3.54-3.3c-3.93-3.66-4.25-7.26-.95-10.8s6.91-3.47,10.84.19l2.36,2.2c3.93,3.66,4.24,7.26.95,10.8l-5.49,5.89c-3.3,3.54-6.91,3.47-10.84-.19l-7.07-6.59,4.4-4.71,7.07,6.59Zm4.24-9.27c-.79-.73-1.36-.9-1.73-.51-.37.39-.16.96.63,1.69l2.36,2.2c.79.73,1.36.9,1.73.51.37-.39.16-.96-.63-1.69l-2.36-2.2Z"/>
      <path class="cls-1" d="m617.8,177.47c-.73-.78-1.49-.81-2.28-.07l3.3,3.53c3.67,3.92,3.74,7.53.21,10.84-3.53,3.3-7.13,3-10.8-.92l-2.2-2.35c-3.67-3.92-3.74-7.53-.21-10.84l5.88-5.51c3.53-3.3,7.13-3,10.8.92l6.61,7.06-4.7,4.41-6.61-7.06Zm-4.85,8.96c.73.78,1.3.99,1.69.63.39-.37.22-.94-.51-1.73l-2.2-2.35c-.73-.78-1.3-.99-1.69-.63-.39.37-.22.94.51,1.73l2.2,2.35Z"/>
      <path class="cls-1" d="m621.4,206.04c-1.96-2.42-2.77-5.18-2.44-8.28.33-3.1,1.7-5.62,4.13-7.58,2.42-1.96,5.18-2.77,8.28-2.44,3.1.33,5.62,1.7,7.58,4.13,1.96,2.42,2.77,5.18,2.44,8.28s-1.71,5.62-4.13,7.58c-2.42,1.96-5.18,2.77-8.28,2.44s-5.62-1.71-7.58-4.13Zm8.26-2.28c1.33.14,2.51-.21,3.55-1.04,1.04-.84,1.62-1.92,1.77-3.25.14-1.33-.21-2.51-1.04-3.55-.84-1.04-1.92-1.62-3.25-1.77-1.33-.14-2.51.21-3.55,1.04-1.04.84-1.62,1.92-1.77,3.25-.14,1.33.21,2.51,1.04,3.55.84,1.04,1.92,1.62,3.25,1.77Z"/>
    </g>
    <g>
      <path class="cls-1" d="m331.94,101.98l-7.1,1.47,3.05-17.08-9.47,1.95-1.3-6.31,18.94-3.91-4.12,23.88Z"/>
      <path class="cls-1" d="m346.4,76.61c6.38-.9,9.92,1.09,10.61,5.97.66,4.69-2.2,7.49-8.58,8.39-2.13.3-3.16.67-3.1,1.1l.13.94,12.76-1.8.9,6.38-19.15,2.7-1.03-7.32c-.66-4.69,2.2-7.49,8.58-8.39l1.6-.23c1.06-.15,1.56-.44,1.5-.88-.09-.63-.67-.87-1.73-.72l-9.57,1.35-.9-6.38,7.98-1.13Z"/>
      <path class="cls-1" d="m366.16,74.42l2.04,22.47-6.42.58-1.46-16.05-1.6.15,1.02-6.56,6.42-.58Z"/>
      <path class="cls-1" d="m394.53,81.48l.06,6.44-12.89.13-.06-6.45,12.89-.13Z"/>
      <path class="cls-1" d="m421.29,74.87c5.35.47,7.81,3.12,7.39,7.93-.15,1.74-.81,3.03-1.96,3.87.99,1.03,1.4,2.41,1.25,4.15-.43,4.82-3.31,6.99-8.67,6.51l-3.21-.28c-5.35-.47-7.81-3.12-7.39-7.93.15-1.74.81-3.03,1.96-3.87-.99-1.03-1.4-2.41-1.25-4.15.43-4.82,3.31-6.99,8.67-6.51l3.21.28Zm-1.42,16.05c1.07.09,1.63-.12,1.68-.66v-.05c.05-.5-.45-.8-1.49-.89l-3.21-.28c-1.07-.09-1.65.12-1.72.66-.05.54.46.85,1.53.94l3.21.28Zm.71-8.03c1.07.09,1.63-.13,1.68-.66.05-.53-.46-.85-1.53-.94l-3.21-.28c-1.07-.09-1.63.13-1.68.66-.05.54.46.85,1.53.94l3.21.28Z"/>
      <path class="cls-1" d="m442.82,77.62c5.31.84,7.58,3.64,6.83,8.42-.27,1.73-1.01,2.97-2.22,3.73.92,1.09,1.24,2.5.96,4.23-.75,4.77-3.78,6.74-9.09,5.91l-3.18-.5c-5.31-.84-7.58-3.64-6.83-8.42.27-1.73,1.01-2.97,2.22-3.73-.92-1.09-1.24-2.5-.96-4.23.75-4.77,3.78-6.74,9.09-5.91l3.18.5Zm-2.51,15.92c1.06.17,1.63-.01,1.72-.54v-.05c.09-.5-.39-.83-1.42-.99l-3.18-.5c-1.06-.17-1.65.01-1.76.54-.08.53.4.88,1.47,1.05l3.18.5Zm1.26-7.96c1.06.17,1.63-.01,1.72-.54.08-.53-.4-.88-1.47-1.05l-3.18-.5c-1.06-.17-1.63.01-1.72.54-.08.53.4.88,1.47,1.05l3.18.5Z"/>
      <path class="cls-1" d="m459.04,103.83c-3.03-.71-5.37-2.39-7.01-5.04s-2.11-5.49-1.39-8.52c.71-3.03,2.39-5.37,5.04-7.01,2.65-1.64,5.49-2.11,8.52-1.39,3.03.71,5.37,2.39,7.01,5.04,1.64,2.65,2.11,5.49,1.39,8.52-.71,3.03-2.39,5.37-5.04,7.01-2.65,1.64-5.49,2.11-8.52,1.39Zm5.12-6.88c1.14-.7,1.86-1.71,2.16-3,.3-1.3.1-2.51-.6-3.65-.7-1.14-1.71-1.86-3-2.16-1.3-.3-2.51-.1-3.65.6-1.14.7-1.86,1.71-2.16,3-.3,1.3-.1,2.51.6,3.65.7,1.14,1.71,1.86,3,2.16,1.3.3,2.51.1,3.65-.6Z"/>
    </g>
    <g>
      <path class="cls-1" d="m161.26,205.67l-4.9-4.19,6.29-7.34c.7-.82.84-1.4.44-1.75-.41-.35-.96-.12-1.66.7l-7.33,8.57-11.02-9.43,11.53-13.46,4.9,4.19-7.33,8.57,1.22,1.05,4.19-4.9c2.79-3.26,5.99-3.36,9.59-.28,3.75,3.21,4.22,6.44,1.43,9.71l-7.33,8.57Z"/>
      <path class="cls-1" d="m167.5,174.54c-.75.77-.74,1.53.02,2.28l3.39-3.45c3.76-3.83,7.37-4.06,10.82-.67,3.45,3.39,3.3,6.99-.47,10.83l-2.26,2.3c-3.76,3.83-7.37,4.06-10.82.67l-5.75-5.64c-3.45-3.39-3.3-6.99.47-10.83l6.77-6.9,4.6,4.51-6.77,6.9Zm9.16,4.47c.75-.77.94-1.34.55-1.71-.38-.38-.95-.18-1.7.59l-2.26,2.3c-.75.77-.94,1.34-.55,1.71.38.38.95.18,1.7-.59l2.26-2.3Z"/>
      <path class="cls-1" d="m177.18,156.18l15.38,16.5-4.71,4.4-10.99-11.78-1.18,1.1-3.22-5.81,4.71-4.4Z"/>
      <path class="cls-1" d="m203.91,144.37l4,5.05-10.11,8-4-5.05,10.11-8Z"/>
      <path class="cls-1" d="m232.55,142.18l-6.1,3.91-3.27-17.04-8.14,5.22-3.48-5.43,16.28-10.44,4.71,23.77Z"/>
      <path class="cls-1" d="m236.94,113.32c5.63-3.13,9.65-2.54,12.04,1.77,2.3,4.14.63,7.78-5,10.91-1.88,1.04-2.71,1.76-2.5,2.14l.46.83,11.27-6.26,3.13,5.63-16.9,9.39-3.59-6.47c-2.3-4.14-.63-7.78,5-10.91l1.41-.78c.94-.52,1.3-.97,1.09-1.36-.31-.55-.93-.57-1.87-.05l-8.45,4.69-3.13-5.63,7.04-3.91Z"/>
      <path class="cls-1" d="m267.25,123.2c-2.83,1.31-5.7,1.42-8.63.35-2.92-1.07-5.04-3.03-6.35-5.85-1.31-2.83-1.42-5.7-.35-8.63,1.07-2.92,3.02-5.04,5.85-6.35,2.83-1.31,5.7-1.42,8.63-.35,2.92,1.07,5.04,3.03,6.35,5.85,1.31,2.83,1.42,5.7.35,8.63-1.07,2.92-3.02,5.04-5.85,6.35Zm-.2-8.57c.46-1.25.41-2.49-.15-3.7-.56-1.21-1.47-2.04-2.72-2.51-1.25-.46-2.49-.41-3.7.15-1.21.56-2.04,1.47-2.51,2.72-.46,1.26-.41,2.49.15,3.7.56,1.21,1.47,2.04,2.72,2.51,1.25.46,2.49.41,3.7-.15s2.04-1.47,2.51-2.72Z"/>
    </g>
    <g>
      <path class="cls-1" d="m97.04,361.63c-.31,3.1-1.68,5.63-4.09,7.6-2.41,1.97-5.17,2.8-8.27,2.48-3.1-.31-5.63-1.68-7.6-4.09-1.97-2.41-2.8-5.17-2.48-8.27.31-3.1,1.68-5.63,4.09-7.6,2.41-1.97,5.17-2.8,8.27-2.48,3.1.31,5.63,1.68,7.6,4.09,1.97,2.41,2.8,5.17,2.48,8.27Zm-7.48-4.19c-.85-1.04-1.93-1.62-3.26-1.75-1.33-.13-2.51.22-3.54,1.07-1.04.85-1.62,1.93-1.75,3.26-.13,1.33.22,2.51,1.07,3.54.85,1.04,1.93,1.62,3.26,1.75s2.51-.22,3.54-1.07c1.04-.85,1.62-1.93,1.75-3.26.13-1.33-.22-2.51-1.07-3.54Z"/>
      <path class="cls-1" d="m88.9,321.69l6.31,1.32-2.64,12.62-6.31-1.32,2.64-12.62Z"/>
      <path class="cls-1" d="m106.82,310.14l-6.15-1.94,2.92-9.22c.32-1.02.23-1.62-.28-1.78-.51-.16-.93.27-1.25,1.29l-3.4,10.75-13.83-4.37,5.35-16.9,6.15,1.94-3.4,10.75,1.54.49,1.94-6.15c1.3-4.1,4.2-5.43,8.72-4,4.7,1.49,6.4,4.28,5.11,8.38l-3.4,10.75Z"/>
      <path class="cls-1" d="m100.4,279.06c-.39,1-.09,1.7.91,2.09l1.77-4.5c1.97-5,5.2-6.61,9.7-4.84,4.5,1.77,5.76,5.16,3.8,10.15l-1.18,3c-1.97,5-5.2,6.61-9.7,4.84l-7.5-2.95c-4.5-1.77-5.76-5.15-3.8-10.15l3.54-9,6,2.36-3.54,9Zm10.18.54c.39-1,.34-1.6-.16-1.79-.5-.2-.95.2-1.34,1.2l-1.18,3c-.39,1-.34,1.6.16,1.79.5.2.95-.2,1.34-1.2l1.18-3Z"/>
      <path class="cls-1" d="m124.68,263.55c-1.35,2.81-3.5,4.72-6.44,5.75-2.94,1.03-5.81.87-8.62-.49-2.81-1.35-4.72-3.5-5.75-6.44-1.03-2.94-.87-5.81.49-8.62,1.35-2.81,3.5-4.72,6.44-5.75,2.94-1.03,5.81-.87,8.62.49,2.81,1.35,4.72,3.5,5.75,6.44,1.03,2.94.87,5.81-.49,8.62Zm-5.6-6.49c-.44-1.26-1.26-2.18-2.46-2.76-1.2-.58-2.43-.65-3.69-.21-1.26.44-2.18,1.26-2.76,2.46-.58,1.2-.65,2.43-.21,3.69.44,1.26,1.26,2.18,2.46,2.76,1.2.58,2.43.65,3.69.21,1.26-.44,2.18-1.26,2.76-2.46.58-1.2.65-2.43.21-3.69Z"/>
    </g>
    <g>
      <path class="cls-6" d="m602.65,97.78l-2.49-1.67c.13-.41.38-.99.54-1.31-1.35.46-2.89.1-4.65-1.07-3.87-2.6-3.86-6.84-1.5-10.35,2.6-3.88,6.76-5.18,10.97-2.35,3.82,2.56,4.11,5.92,3.03,8.02l-3.67-2.46c.27-.79.36-1.95-1.13-2.96-2.11-1.42-3.94.17-5.3,2.19-1.34,2-2.04,4.33,0,5.71,1.87,1.25,3.11.11,3.67-.73l.06-.08-2.32-1.56,1.74-2.59,5.9,3.96-4.87,7.25Z"/>
      <path class="cls-6" d="m621.16,101.93c-2.57,3.46-6.8,4.81-10.99,1.7-4.11-3.05-3.97-7.4-1.4-10.86,2.61-3.52,6.89-4.73,10.99-1.69,3.86,2.86,4.11,7.19,1.4,10.85Zm-8.65-6.47c-1.66,2.25-2.08,4.36-.3,5.68,1.86,1.38,3.71.18,5.25-1.91,1.65-2.23,2.15-4.26.28-5.65-1.74-1.29-3.54-.4-5.23,1.88Z"/>
      <path class="cls-6" d="m634.56,112.8c-2.72,3.34-7.01,4.49-11.05,1.19-3.97-3.24-3.62-7.58-.9-10.92,2.77-3.4,7.1-4.41,11.06-1.18,3.72,3.03,3.77,7.37.89,10.9Zm-8.35-6.87c-1.77,2.17-2.28,4.26-.57,5.66,1.8,1.47,3.7.35,5.34-1.66,1.76-2.15,2.35-4.16.54-5.63-1.68-1.37-3.52-.56-5.31,1.64Z"/>
      <path class="cls-6" d="m641.48,108.76l4.87,4.37c3.61,3.23,3.66,7.39.73,10.65-2.93,3.27-7.23,3.97-10.95.64l-4.82-4.32,10.16-11.34Zm-4.68,11.91l1.27,1.14c1.8,1.62,3.68,1.01,5.58-1.11,1.68-1.88,2.12-3.76.31-5.38l-1.31-1.18-5.85,6.53Z"/>
    </g>
    <g>
      <path class="cls-6" d="m720.64,236.46l11.52-11.23,2.03,4.28-5.1,4.5c-1.58,1.41-2.7,2.32-4.09,3.37l.03.06c1.55-.41,2.99-.66,5.17-1l6.78-1.07,1.96,4.13-16.04,1.71-2.26-4.76Z"/>
      <path class="cls-6" d="m735.7,255.09l-2.71-6.39-2.63,1.12,3.03,7.13-3.24.84-4.52-10.62,14.02-5.96,4.51,10.61-3.04,1.29-2.83-6.66-2.26.96,2.71,6.39-3.04,1.29Z"/>
      <path class="cls-6" d="m737.88,261.83l-5.38,2.04-1.53-4.05,14.24-5.39,2.67,7.06c1.27,3.35.09,5.66-2.06,6.47-1.97.74-3.41-.02-4.19-.86.03,1.02-.56,2.33-2.97,3.25l-.59.22c-.89.34-2.02.8-2.58,1.19l-1.51-3.98c.52-.47,1.53-.93,2.99-1.48l.37-.14c1.23-.47,1.79-1.01,1.1-2.85l-.56-1.47Zm2.91-1.1l.73,1.93c.53,1.39,1.3,1.68,2.25,1.31.95-.36,1.28-1.17.8-2.45l-.74-1.95-3.04,1.15Z"/>
      <path class="cls-6" d="m737.35,277.28l5-1.66c.19-.06.32-.12.5-.33l7.26-7.89,1.59,4.78c-1.73,1.6-3.73,3.41-5.16,4.63,1.77.06,4.77.42,6.91.65l1.46,4.42-10.54-2.06c-.14-.03-.29-.05-.59.05l-5.03,1.67-1.41-4.25Z"/>
      <path class="cls-6" d="m745.75,305.7l-.78-2.89c.37-.22.94-.5,1.27-.63-1.32-.54-2.25-1.82-2.8-3.86-1.22-4.5,1.57-7.69,5.65-8.79,4.51-1.22,8.5.52,9.83,5.42,1.2,4.44-.79,7.17-2.97,8.04l-1.15-4.27c.72-.42,1.56-1.23,1.09-2.97-.67-2.46-3.09-2.45-5.44-1.82-2.32.63-4.38,1.94-3.74,4.31.59,2.17,2.28,2.12,3.25,1.86l.1-.03-.73-2.69,3.01-.81,1.85,6.86-8.43,2.28Z"/>
      <path class="cls-6" d="m756.99,320.97c-4.21.93-8.28-.83-9.41-5.92-1.1-5,1.86-8.19,6.07-9.12,4.28-.94,8.3.95,9.4,5.94,1.03,4.69-1.62,8.12-6.07,9.1Zm-2.28-10.56c-2.73.6-4.43,1.93-3.95,4.08.5,2.27,2.68,2.57,5.21,2.01,2.71-.6,4.42-1.81,3.92-4.08-.47-2.12-2.41-2.62-5.18-2.01Z"/>
      <path class="cls-6" d="m759.95,338c-4.24.73-8.23-1.22-9.12-6.36-.87-5.05,2.24-8.09,6.49-8.82,4.32-.74,8.25,1.34,9.11,6.38.81,4.73-2,8.03-6.49,8.8Zm-1.78-10.66c-2.75.47-4.52,1.72-4.14,3.89.39,2.29,2.56,2.69,5.11,2.25,2.74-.47,4.5-1.6,4.11-3.89-.37-2.14-2.28-2.73-5.08-2.25Z"/>
      <path class="cls-6" d="m767.83,339.49l.81,6.49c.6,4.81-2.1,7.98-6.44,8.52-4.36.54-8.06-1.76-8.68-6.71l-.8-6.42,15.11-1.88Zm-11.35,5.92l.21,1.7c.3,2.4,2.11,3.18,4.94,2.83,2.5-.31,4.07-1.44,3.77-3.86l-.22-1.75-8.7,1.08Z"/>
    </g>
    <g>
      <path class="cls-6" d="m38.79,346.95l-15.2,3.02.61-4.52,6.48-.95c2.01-.31,3.4-.46,5.07-.57v-.06c-1.46-.48-2.76-1.04-4.69-1.91l-6.04-2.7.59-4.36,13.85,7.04-.68,5.02Z"/>
      <path class="cls-6" d="m36.4,323.99l-1.15,6.58,2.71.47,1.28-7.35,3.06,1.02-1.91,10.95-14.45-2.52,1.91-10.94,3.14.55-1.2,6.86,2.33.41,1.15-6.58,3.14.55Z"/>
      <path class="cls-6" d="m38.17,317.36l5.42,1.16-.88,4.08-14.33-3.08,1.53-7.1c.73-3.38,2.88-4.62,5.04-4.16,1.98.43,2.74,1.8,2.94,2.88.51-.84,1.67-1.6,4.1-1.07l.6.13c.89.19,2.05.41,2.71.39l-.86,4c-.67.11-1.72-.05-3.2-.37l-.37-.08c-1.24-.27-1.98-.12-2.38,1.74l-.32,1.48Zm-2.93-.63l.42-1.94c.3-1.4-.17-2.03-1.14-2.24-.96-.21-1.65.28-1.92,1.56l-.42,1.96,3.06.66Z"/>
      <path class="cls-6" d="m46.66,305.16l-4.92-1.26c-.19-.05-.33-.07-.58,0l-9.99,2.61,1.21-4.7c2.23-.39,4.8-.82,6.59-1.06-1.41-.97-3.65-2.83-5.26-4.13l1.11-4.34,7.46,7.16c.1.1.21.19.5.27l4.94,1.27-1.07,4.17Z"/>
      <path class="cls-6" d="m36.58,286.24l2.03-6.49c.99-3.16,3.41-4.73,6.14-3.88,3.15.98,3.84,3.85,2.91,6.82l-.73,2.34,4.92,1.54-1.27,4.05-14-4.38Zm7.46-2.11l.52-1.67c.36-1.16.14-2.13-1.03-2.5-1.2-.37-1.92.31-2.28,1.45l-.53,1.68,3.31,1.04Z"/>
      <path class="cls-6" d="m52.8,261.15c3.9,1.41,6.32,4.94,4.61,9.66-1.68,4.64-5.73,5.71-9.63,4.3-3.97-1.43-6.27-5.05-4.6-9.68,1.57-4.35,5.5-5.78,9.62-4.29Zm-3.58,9.78c2.53.91,4.6.71,5.32-1.29.76-2.1-.86-3.47-3.21-4.32-2.52-.91-4.53-.8-5.29,1.31-.71,1.96.61,3.37,3.18,4.3Z"/>
      <path class="cls-6" d="m59.11,245.77c3.83,1.58,6.09,5.22,4.17,9.86-1.88,4.56-5.98,5.45-9.82,3.86-3.9-1.61-6.04-5.32-4.16-9.87,1.77-4.27,5.75-5.53,9.81-3.85Zm-4.02,9.6c2.49,1.03,4.56.92,5.37-1.05.85-2.07-.7-3.51-3.01-4.46-2.47-1.02-4.49-1.01-5.35,1.07-.8,1.93.46,3.4,2.98,4.44Z"/>
      <path class="cls-6" d="m63.48,240.59l5.03,2.33-1.76,3.79-13.3-6.17,3.06-6.59c1.45-3.13,3.83-3.87,5.84-2.94,1.84.85,2.28,2.36,2.23,3.46.68-.7,1.98-1.19,4.24-.14l.55.26c.83.38,1.91.86,2.56.98l-1.72,3.72c-.68-.04-1.67-.43-3.04-1.06l-.34-.16c-1.15-.53-1.91-.55-2.7,1.17l-.64,1.37Zm-2.72-1.26l.84-1.8c.6-1.3.28-2.02-.61-2.44-.89-.41-1.67-.09-2.22,1.1l-.84,1.82,2.84,1.32Z"/>
    </g>
    <g>
      <path class="cls-6" d="m144.75,114.31l5.31-4.65c2.59-2.26,5.58-2.34,7.54-.1,2.25,2.58,1.31,5.49-1.12,7.61l-1.92,1.68,3.52,4.03-3.32,2.9-10.03-11.47Zm7.75,2.17l1.37-1.2c.95-.83,1.28-1.82.44-2.77-.86-.98-1.87-.77-2.81.05l-1.38,1.21,2.37,2.71Z"/>
      <path class="cls-6" d="m172.71,100.88c2.69,3.36,2.92,7.79-1.16,11.05-4,3.2-8.17,1.95-10.86-1.41-2.74-3.42-2.82-7.87,1.17-11.06,3.75-3,8-2.14,10.84,1.42Zm-8.46,6.71c1.75,2.18,3.69,3.12,5.41,1.74,1.81-1.45,1.12-3.54-.5-5.56-1.73-2.17-3.57-3.17-5.39-1.71-1.69,1.35-1.28,3.32.49,5.53Z"/>
      <path class="cls-6" d="m186.65,90.7c2.53,3.48,2.55,7.92-1.67,10.98-4.14,3.01-8.25,1.57-10.78-1.92-2.57-3.54-2.45-7.99,1.69-10.99,3.88-2.82,8.09-1.76,10.76,1.92Zm-8.77,6.31c1.64,2.26,3.54,3.29,5.32,1.99,1.88-1.36,1.28-3.48-.24-5.58-1.63-2.25-3.42-3.33-5.31-1.96-1.75,1.27-1.44,3.25.23,5.55Z"/>
      <path class="cls-6" d="m193.35,88.49l3.17,4.8-3.61,2.39-8.4-12.71,6.3-4.16c2.99-1.98,5.5-1.33,6.76.58,1.16,1.75.73,3.33.08,4.27.99-.25,2.4.03,3.82,2.18l.35.53c.52.79,1.22,1.8,1.73,2.26l-3.55,2.34c-.58-.4-1.24-1.29-2.1-2.6l-.22-.33c-.72-1.1-1.38-1.53-3.03-.44l-1.31.87Zm-1.71-2.59l1.72-1.14c1.24-.82,1.35-1.63.79-2.49-.56-.85-1.43-.99-2.56-.24l-1.74,1.15,1.79,2.72Z"/>
    </g>
    <g>
      <path class="cls-6" d="m375.23,18.18l11.38-.47.14,3.3-7.01.29.12,2.96,6.56-.27.14,3.32-6.56.27.23,5.63-4.37.18-.63-15.22Z"/>
      <path class="cls-6" d="m392.05,29.92l-.87,2.97-4.35.02,4.75-15.25,5.78-.02,5.07,15.21-4.66.02-.94-2.96-4.78.02Zm3.98-3.32c-.73-2.39-1.32-4.51-1.67-6h-.06c-.35,1.64-.92,3.82-1.53,6.01h3.26Z"/>
      <path class="cls-6" d="m408.66,17.84l-.41,15.22-4.47-.12.41-15.22,4.47.12Z"/>
      <path class="cls-6" d="m415.82,27.62l-.33,5.75-4.33-.25.87-15.21,7.53.43c3.58.21,5.2,2.22,5.07,4.52-.12,2.1-1.41,3.1-2.49,3.48.94.39,1.9,1.46,1.76,4.04l-.04.63c-.05.95-.1,2.17.03,2.84l-4.25-.24c-.22-.67-.22-1.78-.13-3.34l.02-.39c.08-1.31-.2-2.05-2.16-2.16l-1.57-.09Zm.18-3.11l2.06.12c1.48.09,2.06-.5,2.12-1.52.06-1.02-.55-1.65-1.91-1.73l-2.08-.12-.19,3.25Z"/>
    </g>
  </g>
</svg>