<?xml version="1.0" encoding="UTF-8"?>
<svg id="Layer_2" data-name="Layer 2" xmlns="http://www.w3.org/2000/svg" viewBox="0 0 443.1 102.05">
  <defs>
    <style>
      .cls-1 {
        fill: #e40e7f;
      }

      .cls-2 {
        fill: #1b1b1b;
      }
    </style>
  </defs>
  <g id="Header">
    <g>
      <path class="cls-2" d="m256.19,14.22h16.76c11.93,0,17.99,7.31,17.99,16.01,0,10.22-7.47,17.07-18.09,17.07h-16.65V14.22Zm10.76,25.64h4.64c5.33,0,7.99-3.21,7.99-9.38,0-5.07-2.11-8.8-7.98-8.86h-4.66v18.24Z"/>
      <path class="cls-2" d="m300.63,12.56h10.45v6.68h-10.45v-6.68Zm0,10.09h10.45v24.66h-10.45v-24.66Z"/>
      <path class="cls-2" d="m321.59,29.74c0-2.36,0-5.07-.05-7.09h10.17c.16.98.28,3.52.28,4.7,1.14-2.63,3.59-5.42,8.98-5.33v9.08c-5.68-.18-8.93,1.37-8.93,8.12v8.09h-10.45v-17.56Z"/>
      <path class="cls-2" d="m358.74,37.23c.12,2.45,1.64,4.29,4.46,4.29,2.36,0,3.34-.75,3.99-1.9h10.09c-1.41,4.19-4.79,8.35-14.16,8.35-11.21,0-14.76-6.7-14.76-13.02,0-6.79,4.51-12.95,14.71-12.95s14.46,6.67,14.46,13.05c0,.43,0,1.64-.03,2.19h-18.76Zm8.59-5.3c-.09-1.83-.9-3.88-4.16-3.88s-4.25,1.69-4.37,3.88h8.53Z"/>
      <path class="cls-2" d="m414.25,38.55c-.89,4.82-4.81,9.41-14.08,9.41-10.74,0-14.51-6.39-14.51-13.08s4.9-12.89,14.53-12.89c11.18,0,13.72,6.88,13.91,9.5h-9.94c-.29-1.38-1.08-3.07-3.67-3.07-3.02,0-4.21,2.48-4.21,6.42s1.13,6.68,4.18,6.68c2.14,0,3.17-.86,3.86-2.97h9.94Z"/>
      <path class="cls-2" d="m421.34,22.65h4.1v-6.89h10.47v6.89h5.04v6.7h-5.04v8.87c0,1.73.43,2.57,2.55,2.57.51,0,1.12-.02,1.68-.12v6.34c-1.35.41-3.77.61-6.02.61-7.08,0-8.69-3.11-8.69-7.91v-10.35h-4.08v-6.7Z"/>
    </g>
    <g>
      <path class="cls-2" d="m278.02,84.74c0-4.25,0-8.26.13-10.52h-.03c-1.09,3.14-5.46,12.91-8.8,20.42h-2.16c-2.49-5.97-7.26-17.08-8.49-20.39h-.03c.21,2.54.3,7.36.3,11.11v9.29h-2.36v-22.27h3.58c3.29,7.4,7.57,17.39,8.23,19.17h.03c1.09-2.55,5.44-12.3,8.44-19.17h3.64v22.27h-2.47v-9.9Z"/>
      <path class="cls-2" d="m303.45,86.78c0,4.23-2.67,8.3-8.26,8.3-5.16,0-8.13-3.93-8.13-8.28,0-4.57,3.16-8.32,8.26-8.32s8.12,4.07,8.12,8.3Zm-13.96.03c0,3.14,2.07,6.25,5.78,6.25s5.74-2.87,5.74-6.23-2.11-6.31-5.83-6.31-5.69,2.92-5.69,6.29Z"/>
      <path class="cls-2" d="m309.85,83.19c0-1.42,0-2.86-.03-4.28h2.29c.04.44.1,2.07.1,3.66,1.06-2.51,3.44-4.1,6.45-4.09v2.33c-3.63-.04-6.45,2.35-6.45,7.03v6.8h-2.36v-11.45Z"/>
      <path class="cls-2" d="m323.12,78.92h3.21v-5.19h2.37v5.19h4.23v1.95h-4.23v9.19c0,1.94.51,2.79,2.28,2.79.46,0,1.14-.03,1.61-.15v1.81c-.67.25-1.4.27-2.23.27-3.08,0-4.03-1.39-4.03-4.49v-9.43h-3.21v-1.95Z"/>
      <path class="cls-2" d="m353.33,92.5c0,5.99-1.8,9.55-8.23,9.55-5.93,0-7.21-3.46-7.52-5.34h2.42c.5,1.77,1.73,3.35,5.22,3.35,5,0,5.78-3.22,5.78-7.46v-.91c-.96,2-2.79,3.25-6.12,3.25-4.41,0-7.48-3.46-7.48-7.97,0-5.08,3.7-8.49,7.86-8.49,3.69,0,5.23,1.73,5.74,3.04,0-.82.04-2.15.09-2.61h2.26c-.03,1.52-.03,3.03-.03,4.55v9.03Zm-13.49-5.64c0,3.52,2.35,5.98,5.59,5.98,3.51,0,5.65-2.2,5.65-6.16s-2.03-6.12-5.47-6.12c-3.97,0-5.77,3.23-5.77,6.3Z"/>
      <path class="cls-2" d="m374.23,90.9c0,1.38.09,3.37.15,3.74h-2.26c-.12-.63-.18-1.91-.19-2.45-.82,1.71-2.59,2.89-6.04,2.89-4.49,0-6.09-2.71-6.09-5.03,0-3.99,3.67-5.1,8.11-5.1h3.99v-.94c0-1.85-.79-3.63-4.45-3.63-3.27,0-4.04,1.48-4.39,3.08h-2.36c.2-2.13,1.61-4.99,6.76-4.99s6.75,2.67,6.75,5.26v7.16Zm-2.32-4.16c-.53,0-1.57,0-3.92,0-3.92,0-5.82.84-5.82,3.19,0,1.72,1.25,3.18,4.1,3.18,4.6,0,5.65-2.79,5.65-5.56v-.81Z"/>
      <path class="cls-2" d="m396.47,92.5c0,5.99-1.8,9.55-8.23,9.55-5.93,0-7.21-3.46-7.52-5.34h2.42c.5,1.77,1.73,3.35,5.22,3.35,5,0,5.78-3.22,5.78-7.46v-.91c-.96,2-2.79,3.25-6.12,3.25-4.41,0-7.48-3.46-7.48-7.97,0-5.08,3.7-8.49,7.86-8.49,3.69,0,5.23,1.73,5.74,3.04,0-.82.04-2.15.09-2.61h2.26c-.03,1.52-.03,3.03-.03,4.55v9.03Zm-13.49-5.64c0,3.52,2.35,5.98,5.59,5.98,3.51,0,5.65-2.2,5.65-6.16s-2.03-6.12-5.47-6.12c-3.97,0-5.77,3.23-5.77,6.3Z"/>
      <path class="cls-2" d="m405.27,87.31c.18,3.35,2.4,5.77,5.84,5.77,2.63,0,4.12-1.13,5.05-2.82h2.36c-.82,2.21-3,4.81-7.6,4.81-5.4,0-8.03-4.07-8.03-8.25,0-4.84,3.22-8.36,7.95-8.36,5.93,0,7.92,4.42,7.92,8.18,0,.23,0,.41,0,.66h-13.48Zm10.98-1.82c-.15-2.07-1.24-5.06-5.45-5.06-3.4,0-5.17,2.18-5.48,5.06h10.92Z"/>
      <path class="cls-2" d="m426.22,89.9c.61,2.08,2.37,3.26,5.42,3.26,3.29,0,4.5-1.17,4.5-2.77,0-1.44-.82-2.47-5.06-2.96-5.39-.64-6.49-2.49-6.49-4.46s1.57-4.5,6.47-4.5c5.41,0,6.82,2.87,6.97,4.64h-2.4c-.25-1.01-.91-2.75-4.73-2.75-3.22,0-3.92,1.41-3.92,2.41,0,1.32.81,2.11,4.6,2.6,5.77.74,6.95,2.47,6.95,4.85,0,2.81-2.15,4.84-7.03,4.84s-7.14-1.98-7.69-5.18h2.41Z"/>
    </g>
    <rect class="cls-1" x="256.75" y="59.6" width="186.36" height="3.06"/>
    <path class="cls-1" d="m222.9,59.73v35.03h-24.03v-35.03c0-10.45-8.5-18.95-18.95-18.95s-18.95,8.5-18.95,18.95v35.2h-24.03v-35.03c0-10.44-8.5-18.95-18.95-18.95s-18.95,8.51-18.95,18.95v35.03h-24.03v-3.18c1.85-1.16,3.63-2.43,5.31-3.82,10.04-8.29,15.79-20.05,15.79-32.26V22.92c6.41-3.81,13.89-5.99,21.87-5.99,12.11,0,23.06,5.03,30.89,13.12,7.82-8.18,18.85-13.28,31.05-13.28,23.7,0,42.98,19.28,42.98,42.97Z"/>
    <path class="cls-2" d="m68.03,0v20.4c-6.68-3.16-14.21-4.84-22-4.84-11.87,0-23.12,3.9-31.7,10.98C5.22,34.06,0,44.67,0,55.67s5.22,21.61,14.32,29.12c8.57,7.08,19.83,10.98,31.7,10.98,10.66,0,20.81-3.14,28.98-8.9.93-.65,1.85-1.35,2.73-2.07,9.1-7.52,14.32-18.14,14.32-29.12V0h-24.03Zm-22,71.75c-11.92,0-22-7.37-22-16.08s10.08-16.08,22-16.08,22,7.37,22,16.08-10.08,16.08-22,16.08Z"/>
  </g>
</svg>