<?xml version="1.0" encoding="UTF-8"?>
<svg id="Layer_2" data-name="Layer 2" xmlns="http://www.w3.org/2000/svg" viewBox="0 0 578.74 133.29">
  <defs>
    <style>
      .cls-1 {
        fill: #fff;
      }

      .cls-2 {
        fill: #1b1b1b;
      }
    </style>
  </defs>
  <g id="Layer_1-2" data-name="Layer 1">
    <g>
      <path class="cls-2" d="m334.62,18.58h21.89c15.59,0,23.49,9.54,23.49,20.91,0,13.35-9.76,22.3-23.63,22.3h-21.75V18.58Zm14.06,33.5h6.06c6.96,0,10.44-4.2,10.44-12.25,0-6.63-2.76-11.49-10.42-11.57h-6.08v23.82Z"/>
      <path class="cls-2" d="m392.66,16.4h13.65v8.73h-13.65v-8.73Zm0,13.18h13.65v32.21h-13.65V29.58Z"/>
      <path class="cls-2" d="m420.04,38.85c0-3.08,0-6.62-.06-9.27h13.28c.21,1.28.37,4.6.37,6.14,1.48-3.43,4.69-7.08,11.73-6.96v11.85c-7.42-.23-11.67,1.79-11.67,10.6v10.57h-13.65v-22.94Z"/>
      <path class="cls-2" d="m468.55,48.63c.16,3.21,2.14,5.61,5.83,5.61,3.09,0,4.36-.98,5.21-2.49h13.18c-1.84,5.47-6.26,10.9-18.5,10.9-14.64,0-19.27-8.75-19.27-17.01,0-8.87,5.89-16.92,19.21-16.92s18.88,8.71,18.88,17.04c0,.56,0,2.14-.04,2.86h-24.5Zm11.22-6.92c-.12-2.39-1.18-5.06-5.43-5.06s-5.55,2.21-5.71,5.06h11.14Z"/>
      <path class="cls-2" d="m541.06,50.36c-1.16,6.3-6.28,12.29-18.39,12.29-14.02,0-18.96-8.34-18.96-17.09s6.4-16.84,18.98-16.84c14.6,0,17.92,8.99,18.16,12.41h-12.99c-.38-1.8-1.41-4-4.8-4-3.94,0-5.5,3.24-5.5,8.39s1.48,8.72,5.46,8.72c2.8,0,4.13-1.13,5.04-3.88h12.98Z"/>
      <path class="cls-2" d="m550.32,29.58h5.35v-9h13.67v9h6.58v8.75h-6.58v11.58c0,2.26.56,3.36,3.33,3.36.67,0,1.46-.02,2.19-.16v8.27c-1.76.54-4.93.8-7.86.8-9.25,0-11.35-4.06-11.35-10.33v-13.52h-5.33v-8.75Z"/>
    </g>
    <g>
      <path class="cls-2" d="m363.13,110.69c0-5.54,0-10.79.17-13.74h-.04c-1.43,4.11-7.13,16.86-11.49,26.67h-2.82c-3.25-7.8-9.48-22.3-11.09-26.64h-.04c.27,3.31.39,9.61.39,14.51v12.13h-3.08v-29.08h4.67c4.3,9.67,9.89,22.71,10.75,25.03h.04c1.42-3.33,7.11-16.06,11.02-25.03h4.75v29.08h-3.23v-12.93Z"/>
      <path class="cls-2" d="m396.35,113.34c0,5.52-3.49,10.84-10.79,10.84-6.74,0-10.61-5.14-10.61-10.81,0-5.96,4.13-10.87,10.79-10.87s10.61,5.31,10.61,10.84Zm-18.23.03c0,4.1,2.7,8.16,7.55,8.16s7.5-3.75,7.5-8.14-2.76-8.24-7.61-8.24-7.44,3.82-7.44,8.22Z"/>
      <path class="cls-2" d="m404.7,108.66c0-1.85,0-3.74-.04-5.59h2.99c.05.57.14,2.7.14,4.78,1.38-3.28,4.49-5.36,8.43-5.34v3.04c-4.74-.05-8.43,3.07-8.43,9.18v8.88h-3.08v-14.96Z"/>
      <path class="cls-2" d="m422.03,103.07h4.2v-6.78h3.09v6.78h5.53v2.55h-5.53v12c0,2.53.67,3.65,2.98,3.65.61,0,1.49-.03,2.1-.19v2.37c-.88.33-1.82.35-2.91.35-4.02,0-5.26-1.81-5.26-5.87v-12.32h-4.2v-2.55Z"/>
      <path class="cls-2" d="m461.49,120.81c0,7.83-2.35,12.47-10.75,12.47-7.75,0-9.42-4.52-9.82-6.98h3.17c.66,2.32,2.27,4.38,6.82,4.38,6.53,0,7.55-4.21,7.55-9.75v-1.19c-1.26,2.62-3.64,4.25-7.99,4.25-5.75,0-9.78-4.52-9.78-10.4,0-6.64,4.83-11.09,10.27-11.09,4.82,0,6.83,2.26,7.5,3.98,0-1.07.05-2.81.12-3.41h2.96c-.04,1.98-.04,3.96-.04,5.94v11.8Zm-17.62-7.36c0,4.59,3.07,7.81,7.3,7.81,4.59,0,7.38-2.87,7.38-8.05s-2.66-8-7.14-8c-5.18,0-7.53,4.21-7.53,8.23Z"/>
      <path class="cls-2" d="m488.79,118.73c0,1.8.12,4.4.2,4.88h-2.95c-.16-.83-.24-2.5-.25-3.21-1.07,2.24-3.39,3.78-7.88,3.78-5.86,0-7.96-3.55-7.96-6.56,0-5.22,4.79-6.67,10.6-6.67h5.21v-1.22c0-2.42-1.04-4.74-5.81-4.74-4.27,0-5.28,1.93-5.73,4.02h-3.08c.27-2.78,2.1-6.52,8.83-6.52s8.82,3.49,8.82,6.87v9.36Zm-3.02-5.44c-.69,0-2.06,0-5.12,0-5.13,0-7.61,1.1-7.61,4.17,0,2.25,1.64,4.16,5.35,4.16,6.01,0,7.38-3.64,7.38-7.26v-1.06Z"/>
      <path class="cls-2" d="m517.84,120.81c0,7.83-2.35,12.47-10.75,12.47-7.75,0-9.42-4.52-9.82-6.98h3.17c.66,2.32,2.27,4.38,6.82,4.38,6.53,0,7.55-4.21,7.55-9.75v-1.19c-1.26,2.62-3.64,4.25-7.99,4.25-5.75,0-9.78-4.52-9.78-10.4,0-6.64,4.83-11.09,10.27-11.09,4.82,0,6.83,2.26,7.5,3.98,0-1.07.05-2.81.12-3.41h2.96c-.04,1.98-.04,3.96-.04,5.94v11.8Zm-17.62-7.36c0,4.59,3.07,7.81,7.3,7.81,4.59,0,7.38-2.87,7.38-8.05s-2.66-8-7.14-8c-5.18,0-7.53,4.21-7.53,8.23Z"/>
      <path class="cls-2" d="m529.34,114.04c.23,4.37,3.14,7.54,7.62,7.54,3.43,0,5.38-1.48,6.59-3.68h3.09c-1.07,2.88-3.92,6.29-9.92,6.29-7.05,0-10.49-5.32-10.49-10.77,0-6.33,4.2-10.91,10.38-10.91,7.74,0,10.35,5.77,10.35,10.68,0,.3,0,.53,0,.86h-17.61Zm14.34-2.38c-.19-2.7-1.62-6.6-7.11-6.6-4.45,0-6.75,2.85-7.15,6.6h14.26Z"/>
      <path class="cls-2" d="m556.69,117.42c.8,2.71,3.09,4.26,7.08,4.26,4.29,0,5.87-1.53,5.87-3.62,0-1.88-1.07-3.22-6.61-3.87-7.04-.84-8.48-3.25-8.48-5.82s2.04-5.88,8.46-5.88c7.07,0,8.91,3.75,9.1,6.07h-3.13c-.32-1.32-1.19-3.59-6.18-3.59-4.2,0-5.12,1.85-5.12,3.15,0,1.73,1.06,2.76,6.01,3.4,7.54.97,9.08,3.23,9.08,6.34,0,3.67-2.8,6.32-9.18,6.32s-9.32-2.58-10.04-6.76h3.14Z"/>
    </g>
    <rect class="cls-1" x="335.34" y="77.85" width="243.4" height="4"/>
    <path class="cls-1" d="m291.13,78.01v45.75h-31.39v-45.75c0-13.65-11.1-24.75-24.75-24.75s-24.75,11.1-24.75,24.75v45.97h-31.39v-45.75c0-13.64-11.1-24.75-24.75-24.75s-24.75,11.11-24.75,24.75v45.75h-31.39v-4.15c2.42-1.51,4.74-3.18,6.94-4.99,13.11-10.83,20.63-26.19,20.63-42.13V29.93c8.37-4.97,18.14-7.83,28.57-7.83,15.82,0,30.12,6.57,40.34,17.13,10.22-10.69,24.62-17.35,40.55-17.35,30.96,0,56.14,25.18,56.14,56.13Z"/>
    <path class="cls-2" d="m88.85,0v26.65c-8.73-4.13-18.56-6.32-28.74-6.32-15.5,0-30.2,5.09-41.4,14.34C6.82,44.49,0,58.35,0,72.71s6.82,28.22,18.71,38.04c11.2,9.25,25.9,14.34,41.4,14.34,13.92,0,27.18-4.1,37.85-11.63,1.22-.85,2.41-1.76,3.56-2.71,11.89-9.82,18.71-23.69,18.71-38.04V0h-31.38Zm-28.74,93.71c-15.57,0-28.73-9.62-28.73-21s13.16-21,28.73-21,28.74,9.62,28.74,21-13.16,21-28.74,21Z"/>
  </g>
</svg>